<?xml version="1.0" standalone="no"?>
<!DOCTYPE svg PUBLIC "-//W3C//DTD SVG 1.1//EN" "http://www.w3.org/Graphics/SVG/1.1/DTD/svg11.dtd" >
<svg xmlns="http://www.w3.org/2000/svg">
<metadata></metadata>
<defs>
<font id="slate_pro_mediummedium" horiz-adv-x="1118" >
<font-face units-per-em="2048" ascent="1341" descent="-707" />
<missing-glyph horiz-adv-x="352" />
<glyph unicode="&#xfb01;" horiz-adv-x="1124" d="M33 778v183h127v94q0 135 78 213q88 88 243 88q99 0 205 -37l-31 -162q-69 23 -116 23q-75 0 -107 -43q-24 -35 -24 -121v-55h229v-183h-227v-778h-250v778h-127zM723 1243q0 62 41.5 101.5t103.5 39.5q64 0 106 -39.5t42 -101.5t-41 -100.5t-105 -38.5t-105.5 38.5 t-41.5 100.5zM745 0v961h248v-961h-248z" />
<glyph unicode="&#xfb02;" horiz-adv-x="1124" d="M33 778v183h127v94q0 135 78 213q88 88 243 88q99 0 205 -37l-31 -162q-69 23 -116 23q-75 0 -107 -43q-24 -35 -24 -121v-55h229v-183h-227v-778h-250v778h-127zM743 0v1341h250v-1341h-250z" />
<glyph unicode="&#xfb03;" horiz-adv-x="1738" d="M33 778v183h127v94q0 135 78 213q88 88 243 88q99 0 205 -37l-31 -162q-69 23 -116 23q-75 0 -107 -43q-24 -35 -24 -121v-55h366v94q0 135 78 213q88 88 244 88q98 0 204 -37l-30 -162q-69 23 -117 23q-74 0 -106 -43q-25 -36 -25 -121v-55h229v-183h-227v-778h-250v778 h-364v-778h-250v778h-127zM1337 1243q0 62 42 101.5t104 39.5q64 0 105.5 -39.5t41.5 -101.5t-40.5 -100.5t-104.5 -38.5t-106 38.5t-42 100.5zM1360 0v961h248v-961h-248z" />
<glyph unicode="&#xfb04;" horiz-adv-x="1738" d="M33 778v183h127v94q0 135 78 213q88 88 243 88q99 0 205 -37l-31 -162q-69 23 -116 23q-75 0 -107 -43q-24 -35 -24 -121v-55h366v94q0 135 78 213q88 88 244 88q98 0 204 -37l-30 -162q-69 23 -117 23q-74 0 -106 -43q-25 -36 -25 -121v-55h229v-183h-227v-778h-250v778 h-364v-778h-250v778h-127zM1358 0v1341h250v-1341h-250z" />
<glyph horiz-adv-x="0" />
<glyph horiz-adv-x="682" />
<glyph unicode=" "  horiz-adv-x="352" />
<glyph unicode="&#x09;" horiz-adv-x="352" />
<glyph unicode="&#xa0;" horiz-adv-x="352" />
<glyph unicode="!" horiz-adv-x="618" d="M160 123q0 62 41.5 102.5t107.5 40.5t108 -40.5t42 -102.5t-42 -102.5t-108 -40.5q-64 0 -106.5 40.5t-42.5 102.5zM172 1300h274l-38 -897h-195z" />
<glyph unicode="&#x22;" horiz-adv-x="962" d="M168 1331h246l-39 -500h-166zM549 1331h246l-41 -500h-164z" />
<glyph unicode="#" d="M39 356v148h219l66 313h-201v148h231l72 350h154l-72 -350h229l72 350h156l-74 -350h188v-148h-219l-65 -313h200v-148h-231l-72 -352h-153l71 352h-229l-72 -352h-155l73 352h-188zM412 504h229l66 313h-230z" />
<glyph unicode="$" d="M86 195l119 167q55 -62 134.5 -103.5t160.5 -47.5l4 350l-84 33q-98 38 -156 80q-131 95 -131 266q0 91 40 160t103 114q104 74 242 80v133h144v-135q94 -6 189 -47.5t148 -103.5l-104 -160q-105 105 -240 123l-2 -338l76 -31q142 -58 218.5 -141t76.5 -207 q0 -93 -41 -165t-96 -116q-41 -34 -108 -61t-140 -33l-2 -178h-145l4 176q-109 3 -225.5 55t-184.5 130zM354 969q0 -30 11 -54.5t24 -39.5t39 -29.5t41.5 -21t46.5 -17.5v307q-59 0 -110.5 -37t-51.5 -108zM637 205q67 0 114.5 42t47.5 105q0 106 -117 156l-41 18z" />
<glyph unicode="%" horiz-adv-x="1679" d="M86 963q0 173 89 278t235 105t233.5 -104.5t87.5 -278.5q0 -172 -87.5 -276.5t-233.5 -104.5t-235 104.5t-89 276.5zM270 965q0 -104 36.5 -170t103.5 -66t103 65t36 169t-36 169.5t-103 65.5t-103.5 -65t-36.5 -168zM395 45l776 1305l113 -70l-776 -1305zM948 362 q0 172 88 276.5t234 104.5t234.5 -104.5t88.5 -276.5q0 -173 -88.5 -277.5t-234.5 -104.5t-234 104.5t-88 277.5zM1130 362q0 -104 36.5 -169.5t103.5 -65.5t103 64.5t36 168.5t-36 170t-103 66t-103.5 -65t-36.5 -169z" />
<glyph unicode="&#x26;" horiz-adv-x="1372" d="M80 334q0 60 18 113.5t42.5 89t63.5 69t67.5 51.5t66.5 39l49 27l-22 22q-2 3 -16 17.5t-23.5 26t-25 31.5t-26 40t-21.5 45t-16.5 53.5t-5.5 57.5q0 138 108 221.5t269 83.5q160 0 266.5 -83t106.5 -212q0 -50 -14.5 -94.5t-35.5 -75.5t-54 -61t-58.5 -47.5t-60.5 -38.5 l-37 -23l233 -256q38 47 77 132.5t54 154.5l195 -72q-15 -82 -72.5 -194.5t-111.5 -169.5l262 -281h-299l-119 131q-1 0 -21.5 -16.5t-28 -21.5t-30.5 -21t-39.5 -23t-44 -20.5t-54 -20t-59.5 -14.5t-70.5 -11t-78.5 -3q-189 0 -311.5 99t-122.5 255zM330 365 q0 -84 61.5 -137.5t161.5 -53.5q146 0 246 107l-291 315l-37 -21q-65 -39 -103 -86.5t-38 -123.5zM463 1026q0 -16 3 -31t10 -29.5t12.5 -25t17 -24t16 -19t16.5 -18t13 -13.5l49 -55l39 25q123 81 123 186q0 64 -42 103.5t-108 39.5t-107.5 -40.5t-41.5 -98.5z" />
<glyph unicode="'" horiz-adv-x="579" d="M168 1331h244l-39 -500h-166z" />
<glyph unicode="(" horiz-adv-x="696" d="M86 569q0 134 29.5 261.5t73 220t102 177t107 136t98.5 92.5l125 -104q-43 -44 -81 -91.5t-83 -123t-77 -156t-53.5 -188.5t-21.5 -222q0 -456 316 -782l-123 -104q-50 42 -98.5 92.5t-107.5 134.5t-102.5 176.5t-73.5 219.5t-30 261z" />
<glyph unicode=")" horiz-adv-x="696" d="M76 -211q43 44 80.5 91.5t82.5 123t77 155.5t53.5 188t21.5 222t-21.5 222t-53 188.5t-76 156t-83 124t-81.5 92.5l123 104q50 -42 98.5 -92.5t107.5 -135t102.5 -177t73 -219.5t29.5 -261t-29.5 -261t-72.5 -220t-102 -177t-107 -135.5t-98 -92.5z" />
<glyph unicode="*" horiz-adv-x="870" d="M94 1016l45 139l234 -84l-11 246h146l-10 -246l231 84l47 -137l-246 -66l164 -196l-116 -86l-142 207l-143 -207l-117 84l164 198z" />
<glyph unicode="+" d="M102 557v188h363v363h188v-363h363v-188h-363v-362h-188v362h-363z" />
<glyph unicode="," horiz-adv-x="559" d="M31 -160q200 200 200 453l207 -64q0 -126 -76 -259.5t-178 -205.5z" />
<glyph unicode="-" horiz-adv-x="645" d="M66 391v189h514v-189h-514z" />
<glyph unicode="." horiz-adv-x="559" d="M131 127q0 62 42 103.5t106 41.5q66 0 107.5 -40.5t41.5 -102.5t-41.5 -103.5t-105.5 -41.5q-66 0 -108 40.5t-42 102.5z" />
<glyph unicode="/" horiz-adv-x="1107" d="M100 -147l766 1589l142 -70l-766 -1589z" />
<glyph unicode="0" d="M70 651q0 196 54 345.5t166 237t269 87.5t269 -87.5t166.5 -237t54.5 -345.5t-54.5 -345.5t-166.5 -237.5t-269 -88t-269 88t-166 237.5t-54 345.5zM322 651q0 -97 14 -179.5t41.5 -149t74 -104.5t107.5 -38q81 0 136 66.5t78.5 169.5t23.5 235t-23.5 235t-78.5 169.5 t-136 66.5t-135.5 -66.5t-78 -169.5t-23.5 -235z" />
<glyph unicode="1" d="M231 1104q31 5 87 26.5t98 45.5q108 65 129 129h207v-1305h-252v1018q-22 -20 -94 -51q-66 -26 -119 -41z" />
<glyph unicode="2" d="M76 0q5 46 16 91t24 81.5t35 75t39.5 66.5t46 60.5t46.5 52.5t49.5 48t46 40.5t44.5 37.5t38 31q11 9 44 36.5t47.5 39.5t43.5 38.5t43 42t34 41t29.5 46t17 45.5t7.5 49q0 95 -64.5 144.5t-166.5 49.5q-87 0 -163.5 -44t-129.5 -107l-121 161q24 29 58.5 57.5t90.5 62 t136 54.5t170 21q193 0 315.5 -106t122.5 -277q0 -42 -9.5 -82.5t-23 -73t-36.5 -66t-42.5 -56.5t-49 -51t-46.5 -42.5t-45.5 -37t-36.5 -29.5q-8 -6 -57.5 -45.5t-72.5 -60t-61.5 -56.5t-62 -68.5t-35.5 -64.5h629v-205h-950z" />
<glyph unicode="3" d="M61 184l134 154q69 -72 151.5 -113t165.5 -41q93 0 161 52.5t68 148.5q0 97 -70 148t-173 51h-140v190h144q94 0 153.5 47.5t59.5 130.5q0 81 -63 124.5t-160 43.5q-154 0 -279 -125l-111 162q24 24 57 48t86 52.5t125.5 46t151.5 17.5q116 0 212 -37t158 -115t62 -184 q0 -62 -20.5 -114t-49 -83.5t-62.5 -55t-57.5 -33t-37.5 -11.5q17 -3 37.5 -10.5t52 -22t60 -39.5t54 -58t41 -82.5t15.5 -108.5q0 -119 -65.5 -208.5t-171.5 -134t-236 -44.5q-90 0 -170 22.5t-136 58.5t-89.5 65t-57.5 58z" />
<glyph unicode="4" d="M31 276v191l573 833h303v-831h174v-193h-174v-276h-250v276h-626zM240 469h417v623z" />
<glyph unicode="5" d="M61 174l134 154q50 -56 131.5 -100t177.5 -44q115 0 190.5 61.5t75.5 178.5q0 116 -78 177t-190 61q-70 0 -122.5 -23.5t-82.5 -54.5l-154 65l113 651h727v-198h-543l-53 -299q74 37 191 37q85 0 162 -25.5t140 -74.5t100.5 -131.5t37.5 -186.5q0 -139 -71.5 -241.5 t-182.5 -151.5t-242 -49q-279 0 -461 194z" />
<glyph unicode="6" d="M90 629q0 352 172 532q147 160 383 160q118 0 210.5 -34t150.5 -81l-97 -164q-32 30 -101 59t-157 29q-125 0 -211 -86q-108 -108 -108 -344q131 131 332 131q161 0 274 -109.5t113 -291.5q0 -195 -124 -322.5t-341 -127.5q-247 0 -385 196q-111 159 -111 453zM338 502 q0 -139 64 -235.5t178 -96.5q112 0 168.5 68.5t56.5 175.5q0 104 -57 169.5t-168 65.5q-77 0 -140 -43t-102 -104z" />
<glyph unicode="7" d="M117 1100v200h917v-188l-547 -1112h-268l559 1100h-661z" />
<glyph unicode="8" d="M76 354q0 227 258 326q-36 14 -68.5 34.5t-68 55.5t-57 89.5t-21.5 121.5q0 108 62.5 187t160.5 116t217 37q118 0 216 -36.5t161 -115t63 -186.5q0 -63 -22 -114.5t-58.5 -85t-70.5 -53.5t-72 -34q46 -16 88 -41.5t84 -65.5t67 -101t25 -134q0 -121 -67 -207 t-174 -126.5t-240 -40.5q-99 0 -185.5 23.5t-153.5 68.5t-105.5 117.5t-38.5 164.5zM322 373q0 -98 68 -153.5t169 -55.5q102 0 170 55t68 152q0 49 -26.5 89.5t-70.5 68t-88 44.5t-92 29q-198 -70 -198 -229zM356 973q0 -79 70.5 -130.5t165.5 -68.5q170 57 170 197 q0 84 -56.5 128t-146.5 44q-89 0 -146 -43t-57 -127z" />
<glyph unicode="9" d="M68 870q0 196 123.5 323.5t340.5 127.5q248 0 386 -197q110 -161 110 -452q0 -350 -172 -533q-149 -159 -383 -159q-120 0 -214.5 35t-156.5 87l99 168q45 -40 120.5 -68t143.5 -28q131 0 211 80q31 31 52 64.5t39.5 108t18.5 175.5q-18 -18 -27.5 -27t-43 -32.5 t-65 -36.5t-84.5 -25t-111 -12q-160 0 -273.5 110t-113.5 291zM313 893q0 -104 58 -171t168 -67q79 0 141.5 45t99.5 103q0 139 -63.5 235.5t-177.5 96.5q-113 0 -169.5 -67.5t-56.5 -174.5z" />
<glyph unicode=":" horiz-adv-x="559" d="M131 127q0 62 42 103.5t106 41.5q66 0 107.5 -40.5t41.5 -102.5t-41.5 -103.5t-105.5 -41.5q-66 0 -108 40.5t-42 102.5zM131 809q0 62 42 103.5t106 41.5q66 0 107.5 -40.5t41.5 -102.5t-41.5 -103.5t-105.5 -41.5q-66 0 -108 40.5t-42 102.5z" />
<glyph unicode=";" horiz-adv-x="559" d="M31 -160q200 200 200 453l207 -66q0 -124 -76.5 -257.5t-177.5 -205.5zM135 809q0 62 42 102.5t108 40.5q64 0 106.5 -40.5t42.5 -102.5t-41.5 -102.5t-107.5 -40.5q-65 0 -107.5 41t-42.5 102z" />
<glyph unicode="&#x3c;" d="M102 532v191l914 369v-207l-688 -256l688 -256v-207z" />
<glyph unicode="=" d="M102 324v190h914v-190h-914zM102 743v189h914v-189h-914z" />
<glyph unicode="&#x3e;" d="M102 166v207l689 256l-689 254v209l914 -369v-188z" />
<glyph unicode="?" horiz-adv-x="919" d="M51 1167q19 19 45 38.5t77 49t126.5 48t161.5 18.5q179 0 288 -93.5t109 -228.5q0 -50 -12.5 -95t-27.5 -73.5t-42.5 -59.5t-40.5 -42.5t-39 -32.5l-123 -102q-39 -33 -50 -57t-13 -66l-2 -68h-203v89q-3 76 12.5 120.5t73.5 92.5l111 90q1 1 15 12.5t17.5 14t16 13.5 t17 15.5t15 15.5t14.5 18t11 18.5t9.5 21t5 21.5t2.5 24q0 65 -51 107t-148 42q-62 0 -123 -24t-90.5 -45.5t-52.5 -44.5zM258 123q0 62 42 102.5t108 40.5q64 0 105.5 -40.5t41.5 -102.5t-41.5 -102.5t-105.5 -40.5q-66 0 -108 40.5t-42 102.5z" />
<glyph unicode="@" horiz-adv-x="1665" d="M115 467q0 132 41 250.5t112.5 207.5t166 154.5t204.5 99t225 33.5q180 0 313.5 -61.5t219.5 -155.5q159 -170 159 -409q0 -238 -143 -393q-54 -60 -124.5 -92.5t-141.5 -32.5q-86 0 -136.5 42.5t-58.5 102.5q-6 -12 -22 -31t-45 -45.5t-74.5 -44.5t-95.5 -18 q-115 0 -187.5 79.5t-72.5 231.5q0 116 42 217t109 166q105 102 244 102q84 0 134.5 -30.5t66.5 -61.5l39 72h135l-119 -463q-16 -69 -16 -104q0 -88 79 -88q44 0 88.5 25t82.5 72t61.5 124t23.5 170q0 103 -39.5 194.5t-110.5 159.5t-177 107.5t-232 39.5q-128 0 -241 -47 t-195 -129t-129 -199t-47 -251q0 -273 161.5 -431.5t428.5 -158.5q85 0 163.5 10.5t130.5 26t91.5 31t57.5 25.5l18 11l47 -98q-7 -5 -21.5 -14t-63.5 -31.5t-105 -40t-146.5 -31.5t-186.5 -14q-208 0 -368.5 84.5t-253 249t-92.5 387.5zM618 389q0 -174 136 -174 q55 0 114 51t80 129l62 236q-4 35 -42.5 73.5t-101.5 38.5q-90 0 -159 -86q-38 -48 -63.5 -118.5t-25.5 -149.5z" />
<glyph unicode="A" horiz-adv-x="1204" d="M-10 0l456 1300h308l460 -1300h-274l-94 285h-508l-94 -285h-254zM399 487h383l-190 574z" />
<glyph unicode="B" horiz-adv-x="1198" d="M150 0v1300h448q228 0 322 -63q137 -90 137 -258q0 -99 -58.5 -174.5t-164.5 -104.5v-4q138 -23 218.5 -109t80.5 -212q0 -191 -152 -293q-127 -82 -356 -82h-475zM406 193h208q108 0 172 36q82 51 82 160q0 111 -82 162q-66 37 -170 37h-210v-395zM406 766h176 q98 0 147 35q70 51 70 137q0 94 -70 139q-47 29 -147 29h-176v-340z" />
<glyph unicode="C" horiz-adv-x="1220" d="M76 651q0 156 51.5 285t139.5 212t201 128t239 45q93 0 176 -24t133 -53.5t92 -68.5t54.5 -56t19.5 -29l-135 -170q-4 7 -12.5 19t-38.5 42.5t-64.5 53.5t-92 42t-120.5 19q-170 0 -275.5 -121t-105.5 -320q0 -200 103.5 -321t273.5 -121q63 0 121 18.5t96 44.5t66.5 52 t41.5 44l13 19l133 -174q-6 -10 -17 -26t-54 -56.5t-94.5 -72t-138.5 -57t-186 -25.5q-132 0 -245 45t-196.5 128.5t-131 211.5t-47.5 286z" />
<glyph unicode="D" horiz-adv-x="1341" d="M150 0v1300h448q295 0 467 -155q91 -82 146 -207.5t55 -286.5q0 -163 -55 -287.5t-146 -207.5q-173 -156 -465 -156h-450zM408 207h186q183 0 289 106q118 118 118 340q0 223 -118 338q-104 107 -289 107h-186v-891z" />
<glyph unicode="E" horiz-adv-x="1081" d="M150 0v1300h835v-202h-577v-316h536v-204h-536v-369h596v-209h-854z" />
<glyph unicode="F" horiz-adv-x="1001" d="M150 0v1300h800v-202h-542v-357h497v-204h-497v-537h-258z" />
<glyph unicode="G" horiz-adv-x="1361" d="M76 655q0 126 34 234t93.5 186.5t139.5 134.5t172.5 83.5t191.5 27.5q88 0 168.5 -21t130.5 -47.5t95.5 -64t61 -55.5t30.5 -37q2 -3 3 -4l-152 -156q-1 1 -12 14t-18 20.5t-22.5 23t-29.5 25.5t-34.5 24.5t-43 23.5t-48.5 17.5t-57 13t-64 4.5q-161 0 -269 -119.5 t-108 -329.5q0 -213 102.5 -330.5t268.5 -117.5q60 0 112 12.5t83.5 29.5t54 34.5t31.5 30.5l9 12v186h-270v195h516v-705h-172l-24 133q-4 -6 -13 -16.5t-43 -37t-75 -46.5t-112 -36.5t-151 -16.5q-117 0 -221.5 45.5t-184.5 130t-126.5 213.5t-46.5 286z" />
<glyph unicode="H" horiz-adv-x="1384" d="M150 0v1300h258v-516h569v516h258v-1300h-258v578h-569v-578h-258z" />
<glyph unicode="I" horiz-adv-x="559" d="M150 0v1300h258v-1300h-258z" />
<glyph unicode="J" horiz-adv-x="563" d="M-123 -319l35 182q45 -23 117 -23q58 0 92.5 40t34.5 124v1296h258v-1284q0 -178 -92 -276q-93 -96 -256 -96q-52 0 -99 9t-69 19z" />
<glyph unicode="K" horiz-adv-x="1183" d="M150 0v1300h258v-559l458 559h301l-465 -530l482 -770h-299l-346 573l-131 -145v-428h-258z" />
<glyph unicode="L" horiz-adv-x="950" d="M150 0v1300h258v-1091h516v-209h-774z" />
<glyph unicode="M" horiz-adv-x="1654" d="M125 0l45 1300h332l323 -989l326 989h334l45 -1300h-256l-19 975l-321 -975h-227l-324 975l-16 -975h-242z" />
<glyph unicode="N" horiz-adv-x="1374" d="M150 0v1300h276l555 -894v894h244v-1300h-248l-584 942v-942h-243z" />
<glyph unicode="O" horiz-adv-x="1425" d="M76 651q0 301 173.5 485.5t463.5 184.5t463.5 -184.5t173.5 -485.5t-173.5 -486t-463.5 -185t-463.5 184.5t-173.5 486.5zM340 653q0 -201 99 -327.5t274 -126.5q174 0 273 126t99 328q0 200 -99 326.5t-273 126.5q-175 0 -274 -126t-99 -327z" />
<glyph unicode="P" horiz-adv-x="1142" d="M150 0v1300h442q219 0 344 -98q139 -108 139 -323q0 -217 -139 -326q-63 -49 -156.5 -72.5t-187.5 -23.5h-184v-457h-258zM408 653h141q69 0 110 9t78 36q80 60 80 181q0 120 -80 178q-36 27 -77.5 37t-108.5 10h-143v-451z" />
<glyph unicode="Q" horiz-adv-x="1425" d="M76 651q0 301 173.5 485.5t463.5 184.5t463.5 -184.5t173.5 -485.5q0 -113 -26.5 -211t-63 -160.5t-83.5 -112t-79.5 -72t-59.5 -34.5q11 -54 55.5 -110t104.5 -88l-205 -146q-71 37 -122.5 109t-71.5 164q-35 -10 -86 -10q-290 0 -463.5 184.5t-173.5 486.5zM340 653 q0 -201 99 -327.5t274 -126.5q174 0 273 126t99 328q0 200 -99 326.5t-273 126.5q-175 0 -274 -126t-99 -327z" />
<glyph unicode="R" horiz-adv-x="1193" d="M150 0v1300h468q213 0 328 -88q144 -113 144 -301q0 -134 -72.5 -228.5t-194.5 -135.5l344 -547h-295l-303 506h-161v-506h-258zM408 698h180q106 0 168 43q35 24 56.5 66.5t21.5 93.5t-21.5 93.5t-56.5 66.5q-62 43 -166 43h-182v-406z" />
<glyph unicode="S" horiz-adv-x="1064" d="M33 174l129 182q54 -54 152 -106.5t200 -52.5q113 0 172 42t59 117q0 34 -14.5 61.5t-41.5 46.5t-45 28t-46 20q-26 10 -130.5 48.5t-121.5 45.5q-252 98 -252 340q0 67 25 130t77 119.5t146.5 91t218.5 34.5q143 0 258.5 -55t177.5 -117l-110 -176q-53 53 -147.5 98 t-186.5 45q-101 0 -154 -37t-53 -108q0 -27 11.5 -51t23.5 -38t37.5 -29t35 -19.5t33.5 -14.5q26 -10 130 -48.5t118 -43.5q266 -98 266 -342q0 -58 -16 -113.5t-53.5 -109t-92.5 -93.5t-139 -64.5t-186 -24.5q-132 0 -264 52.5t-217 141.5z" />
<glyph unicode="T" horiz-adv-x="1030" d="M14 1098v202h1000v-202h-371v-1098h-256v1098h-373z" />
<glyph unicode="U" horiz-adv-x="1310" d="M135 514v786h258v-798q0 -85 11 -130.5t42 -82.5q69 -82 207 -82q140 0 209 82q31 37 42 82.5t11 130.5v798h259v-784q0 -136 -25.5 -228t-89.5 -163q-130 -145 -404 -145q-276 0 -403 145q-64 70 -90.5 162t-26.5 227z" />
<glyph unicode="V" horiz-adv-x="1187" d="M10 1300h273l319 -1024l324 1024h252l-441 -1300h-286z" />
<glyph unicode="W" horiz-adv-x="1808" d="M31 1300h264l227 -999l250 999h268l250 -999l228 999h260l-334 -1300h-283l-256 993l-256 -993h-282z" />
<glyph unicode="X" horiz-adv-x="1191" d="M4 0l436 668l-399 632h291l264 -471l264 471h293l-397 -632l432 -668h-297l-295 508l-293 -508h-299z" />
<glyph unicode="Y" horiz-adv-x="1153" d="M0 1300h285l295 -569l292 569h281l-446 -770v-530h-258v530z" />
<glyph unicode="Z" horiz-adv-x="1148" d="M59 0v178l689 920h-664v202h979v-182l-678 -909h705v-209h-1031z" />
<glyph unicode="[" horiz-adv-x="696" d="M156 -281v1682h452v-137h-248v-1405h248v-140h-452z" />
<glyph unicode="\" horiz-adv-x="1107" d="M100 1372l140 70l768 -1589l-140 -70z" />
<glyph unicode="]" horiz-adv-x="696" d="M88 -141h248v1403h-248v139h453v-1682h-453v140z" />
<glyph unicode="^" d="M102 647l351 653h213l350 -653h-217l-240 475l-237 -475h-220z" />
<glyph unicode="_" d="M0 -162h1118v-119h-1118v119z" />
<glyph unicode="`" horiz-adv-x="874" d="M246 1337h241l140 -266h-176z" />
<glyph unicode="a" horiz-adv-x="1015" d="M59 274q0 223 279 291q135 33 321 33v45q0 156 -198 156q-77 0 -155.5 -24.5t-135.5 -61.5l-68 172q72 39 173 66.5t206 27.5q207 0 314 -90q54 -43 83 -109.5t29 -175.5v-389q0 -132 45 -215h-266q-20 60 -20 111q-114 -131 -291 -131q-60 0 -114 16.5t-100.5 49.5 t-74 92t-27.5 136zM311 293q0 -75 43.5 -107t106.5 -32q57 0 110.5 30.5t87.5 89.5v177q-89 0 -180 -15q-168 -28 -168 -143z" />
<glyph unicode="b" horiz-adv-x="1155" d="M131 0v1341h248v-522q8 13 19 27t38.5 40t59 44.5t81.5 33.5t105 15q187 0 299.5 -138.5t112.5 -359.5q0 -220 -118.5 -360.5t-305.5 -140.5t-289 155l-25 -135h-225zM373 483q0 -130 61.5 -218.5t167.5 -88.5q109 0 173.5 88t64.5 217q0 131 -62 219t-170 88 q-107 0 -171 -88t-64 -217z" />
<glyph unicode="c" horiz-adv-x="937" d="M59 479q0 119 41 216t109 158t154 93.5t180 32.5q69 0 131.5 -15t102 -35t72 -45t45.5 -39.5t19 -23.5l-114 -153q-4 4 -11 11.5t-30.5 25.5t-48.5 32t-63.5 25.5t-76.5 11.5q-112 0 -187 -73t-75 -218q0 -146 74.5 -219.5t189.5 -73.5q40 0 79.5 11t66.5 26.5t49 31.5 t32 27l11 11l109 -164q-13 -16 -34.5 -35t-67.5 -49t-120.5 -49.5t-163.5 -19.5q-97 0 -182 32.5t-150.5 93.5t-103 157t-37.5 216z" />
<glyph unicode="d" horiz-adv-x="1155" d="M59 479q0 221 117 360.5t305 139.5q55 0 104 -14.5t79 -33t56.5 -45t36 -40t17.5 -27.5v522h250v-1341h-225l-25 135q-39 -55 -79 -86q-91 -69 -220 -69q-187 0 -301.5 139.5t-114.5 359.5zM315 483q0 -130 62 -218.5t168 -88.5q109 0 172 88t63 219q0 130 -60.5 217.5 t-168.5 87.5q-107 0 -171.5 -88t-64.5 -217z" />
<glyph unicode="e" horiz-adv-x="1024" d="M59 479q0 233 134.5 366.5t345.5 133.5q201 0 316.5 -132.5t115.5 -348.5v-78h-660q4 -121 74.5 -186.5t187.5 -65.5q53 0 104.5 12t89.5 31t58.5 31.5t34.5 23.5l86 -151q-5 -5 -15 -14.5t-47 -32.5t-80 -41t-114 -32.5t-149 -14.5q-215 0 -348.5 132.5t-133.5 366.5z M307 584h426q0 99 -51.5 162t-153.5 63q-100 0 -156.5 -65.5t-64.5 -159.5z" />
<glyph unicode="f" horiz-adv-x="614" d="M33 778v183h127v94q0 135 78 213q88 88 243 88q99 0 205 -37l-31 -162q-69 23 -116 23q-75 0 -107 -43q-24 -35 -24 -121v-55h229v-183h-227v-778h-250v778h-127z" />
<glyph unicode="g" horiz-adv-x="1140" d="M59 506q0 210 118.5 341.5t303.5 131.5q55 0 103 -14.5t77 -33t53.5 -44t34 -40.5t15.5 -28l20 142h230v-756q0 -141 -25.5 -239.5t-85.5 -166.5q-139 -155 -399 -155q-128 0 -240 37t-166 73l82 176q63 -39 151 -65.5t163 -26.5q141 0 211 70q65 65 65 205v75 q-8 -16 -26.5 -38t-53.5 -51.5t-93 -49.5t-126 -20q-187 0 -299.5 132t-112.5 345zM315 508q0 -120 60.5 -199.5t165.5 -79.5q106 0 167.5 79.5t61.5 199.5q0 121 -59 200.5t-164 79.5q-106 0 -169 -80.5t-63 -199.5z" />
<glyph unicode="h" horiz-adv-x="1128" d="M129 0v1341h250v-542q49 76 126.5 128t182.5 52q160 0 240 -93t80 -272v-614h-248v557q0 103 -37.5 158t-128.5 55q-86 0 -143 -66t-72 -141v-563h-250z" />
<glyph unicode="i" horiz-adv-x="509" d="M106 1243q0 62 42 101.5t106 39.5t105.5 -38.5t41.5 -100.5q0 -63 -41 -103t-104 -40q-64 0 -107 39.5t-43 101.5zM129 0v961h250v-961h-250z" />
<glyph unicode="j" horiz-adv-x="514" d="M-84 -324l25 179q40 -15 84 -15q52 0 77 25q33 33 33 149v947h250v-965q0 -178 -66 -256q-84 -96 -231 -96q-100 0 -172 32zM113 1243q0 62 41.5 101.5t103.5 39.5q64 0 107 -38.5t43 -100.5q0 -63 -42 -103t-106 -40t-105.5 39.5t-41.5 101.5z" />
<glyph unicode="k" horiz-adv-x="1038" d="M129 0v1341h250v-766l346 386h293l-369 -377l389 -584h-286l-269 403l-104 -102v-301h-250z" />
<glyph unicode="l" horiz-adv-x="509" d="M129 0v1341h250v-1341h-250z" />
<glyph unicode="m" horiz-adv-x="1685" d="M129 0v961h233l17 -162q50 82 125 131t168 49q215 0 274 -193q126 193 318 193q139 0 220 -87t81 -261v-631h-248v573q0 95 -32 146t-116 51q-56 0 -101.5 -39t-67 -83.5t-27.5 -84.5v-563h-250v573q0 95 -31 146t-114 51q-43 0 -80.5 -22.5t-61 -56t-38.5 -67t-19 -61.5 v-563h-250z" />
<glyph unicode="n" horiz-adv-x="1128" d="M129 0v961h233l17 -162q49 76 126.5 128t182.5 52q160 0 240 -93t80 -272v-614h-248v557q0 103 -37.5 158t-128.5 55q-86 0 -143 -66t-72 -141v-563h-250z" />
<glyph unicode="o" horiz-adv-x="1093" d="M59 479q0 230 134 365t354 135t353.5 -135t133.5 -365q0 -229 -133.5 -364t-353.5 -135t-354 134.5t-134 364.5zM315 479q0 -138 60 -224.5t172 -86.5q111 0 171 86.5t60 224.5t-60 225t-171 87q-112 0 -172 -86.5t-60 -225.5z" />
<glyph unicode="p" horiz-adv-x="1155" d="M131 -340v1301h234l14 -142q8 13 19 27t38.5 40t59 44.5t81.5 33.5t105 15q187 0 299.5 -138.5t112.5 -359.5q0 -220 -118.5 -360.5t-305.5 -140.5t-289 155v-475h-250zM373 483q0 -130 61.5 -218.5t167.5 -88.5q109 0 173.5 88t64.5 217q0 131 -62 219t-170 88 q-107 0 -171 -88t-64 -217z" />
<glyph unicode="q" horiz-adv-x="1155" d="M59 479q0 221 117 360.5t305 139.5q55 0 104 -14.5t79 -33t56.5 -45t36 -40t17.5 -27.5l19 142h231v-1301h-250v475q-39 -55 -79 -86q-91 -69 -220 -69q-187 0 -301.5 139.5t-114.5 359.5zM315 483q0 -130 62 -218.5t168 -88.5q109 0 173 88t64 219q0 129 -61.5 217 t-169.5 88q-107 0 -171.5 -88t-64.5 -217z" />
<glyph unicode="r" horiz-adv-x="751" d="M129 0v961h233l17 -173q37 79 112.5 136t165.5 57q23 0 42.5 -2.5t27.5 -4.5l8 -3l-30 -240q-33 14 -84 14q-90 0 -155.5 -66t-86.5 -167v-512h-250z" />
<glyph unicode="s" horiz-adv-x="890" d="M31 143l123 154q51 -54 135.5 -90.5t150.5 -36.5q154 0 154 90q0 22 -14 40.5t-38 30.5t-45 20t-46 15q-7 2 -11 3q-100 30 -153 51q-20 8 -28.5 11.5t-34.5 16.5t-41 25t-37 33.5t-34.5 45t-22 57t-9.5 71.5q0 137 106 219t279 82q64 0 125.5 -13.5t103 -32.5t74 -37.5 t48.5 -31.5l15 -14l-96 -158q-60 47 -131.5 75t-132.5 28q-149 0 -149 -86q0 -10 2.5 -18.5t6 -15.5t10.5 -14t12.5 -11.5t16.5 -10l17 -8.5t20 -8t20.5 -7t22.5 -7t21 -7q152 -48 182 -61q187 -77 187 -246q0 -135 -103 -225q-105 -92 -307 -92q-120 0 -232 51t-167 112z " />
<glyph unicode="t" horiz-adv-x="698" d="M35 778v183h135l16 249h232v-249h252v-183h-252v-434q0 -90 24 -127q28 -43 90 -43q55 0 113 14l25 -178q-101 -30 -209 -30q-143 0 -217 71q-42 41 -58 98.5t-16 147.5v481h-135z" />
<glyph unicode="u" d="M119 344v617h250v-566q0 -101 38 -153t125 -52q83 0 138 63.5t67 139.5v568h250v-961h-233l-15 162q-118 -182 -299 -182q-158 0 -239.5 92t-81.5 272z" />
<glyph unicode="v" horiz-adv-x="1003" d="M4 961h268l232 -711l231 711h262l-364 -961h-262z" />
<glyph unicode="w" horiz-adv-x="1507" d="M25 961h254l167 -701l185 701h243l187 -701l166 701h256l-277 -961h-252l-200 684l-199 -684h-252z" />
<glyph unicode="x" horiz-adv-x="978" d="M-6 0l342 489l-322 472h281l199 -336l198 336h271l-322 -472l342 -489h-285l-213 354l-215 -354h-276z" />
<glyph unicode="y" horiz-adv-x="1013" d="M14 961h269l231 -715l231 715h263l-406 -1053q-58 -148 -123.5 -206t-171.5 -58q-63 0 -119 12t-81 24l-25 11l53 184q58 -29 109 -29q39 0 60.5 17.5t41.5 68.5l33 88z" />
<glyph unicode="z" horiz-adv-x="899" d="M35 0v154l512 622h-492v185h789v-156l-502 -612h522v-193h-829z" />
<glyph unicode="{" horiz-adv-x="696" d="M31 463v176h35q33 0 56 10t36.5 24.5t21.5 46t11 60t6 80.5l14 266q7 122 54 188.5t165 76.5l182 16l13 -139l-113 -17q-63 -8 -81 -43t-21 -118l-15 -291q-6 -116 -46 -174t-136 -70v-8q95 -10 134.5 -68.5t45.5 -175.5l17 -291q2 -37 4 -54.5t8 -40.5t16 -34t28.5 -20 t45.5 -13l113 -16l-11 -139l-184 16q-62 5 -104 25.5t-65.5 57.5t-34 79t-13.5 102l-16 267q-3 53 -6 80.5t-10.5 59.5t-20.5 46.5t-36 24.5t-56 10h-37z" />
<glyph unicode="|" horiz-adv-x="655" d="M233 -281v1682h189v-1682h-189z" />
<glyph unicode="}" horiz-adv-x="696" d="M72 -166l112 16q27 4 45.5 13t29.5 20.5t17 33t8 40.5t3 53l14 293q6 116 46 174t136 70v8q-95 10 -134.5 68t-45.5 174l-16 293q-1 34 -3 53t-8 41t-17 33.5t-29.5 20.5t-45.5 13l-112 15l10 141l184 -16q118 -10 164 -76t53 -189l17 -266q3 -53 6 -80.5t10.5 -59.5 t20.5 -46.5t36 -24.5t56 -10h37v-176h-35q-33 0 -56 -10t-36.5 -24.5t-21.5 -46t-11 -60t-6 -80.5l-15 -267q-3 -60 -14 -103t-34.5 -79t-66 -56.5t-104.5 -25.5l-182 -16z" />
<glyph unicode="~" d="M41 514q51 159 134.5 231t184.5 72q44 0 79 -8t67.5 -28t45 -29.5t44.5 -36.5q62 -54 89 -69q36 -19 77 -19q51 0 93 50.5t67 129.5l155 -72q-51 -159 -134.5 -231t-184.5 -72q-41 0 -74.5 7.5t-65.5 26t-44 27t-42 34.5q-7 5 -10 8q-62 55 -88 69q-37 19 -78 19 q-51 0 -92.5 -50.5t-66.5 -130.5z" />
<glyph unicode="&#xa1;" horiz-adv-x="618" d="M160 836q0 62 42 103.5t107 41.5t107.5 -41t42.5 -102q0 -62 -43 -104t-107 -42q-65 0 -107 41t-42 103zM172 -342l39 897h195l38 -897h-272z" />
<glyph unicode="&#xa2;" d="M137 649q0 213 119 342t309 150v180h144v-182q25 -2 49 -7t43.5 -11t40 -15t35 -16t31 -18t26.5 -17.5t23 -17.5t17.5 -15.5t14.5 -13.5l10 -9l-98 -163q-9 14 -28.5 33.5t-65.5 45.5t-98 31v-588q43 5 80 20t60 34.5t34.5 32t17.5 22.5l98 -164q-24 -24 -53 -47 t-97.5 -55t-139.5 -39v-185h-144v181q-189 15 -308.5 146.5t-119.5 344.5zM369 653q0 -125 53 -200t143 -95v588q-88 -18 -142 -94t-54 -199z" />
<glyph unicode="&#xa3;" d="M119 0v158l184 28q35 49 54.5 112t19.5 122q0 79 -27 160h-200v139h161l-12 39q0 1 -5 16t-7.5 24t-7 29t-7 37t-4.5 42t-2 50q0 82 33.5 153t93.5 118q119 94 293 94q220 0 358 -174l-124 -141q-3 5 -9.5 13t-28 28.5t-46 36.5t-62.5 29t-78 13q-100 0 -153.5 -56 t-53.5 -132q0 -91 35 -184l11 -35h348v-137h-310q25 -83 25 -156q0 -59 -21.5 -123.5t-54.5 -112.5h522v-190h-925z" />
<glyph unicode="&#xa4;" d="M74 291l168 168q-56 87 -56 192q0 110 56 191l-168 168l125 127l168 -168q88 57 192 57q108 0 191 -57l168 168l126 -125l-167 -168q55 -85 55 -193q0 -110 -55 -190l167 -168l-124 -127l-168 168q-90 -58 -193 -58q-106 0 -190 58l-168 -168zM362 651q0 -82 57.5 -139 t139.5 -57t139.5 57t57.5 139t-57.5 139.5t-139.5 57.5t-139.5 -57.5t-57.5 -139.5z" />
<glyph unicode="&#xa5;" d="M47 1300h275l239 -538l240 538h270l-309 -579h250v-139h-316l-18 -37v-105h334v-137h-334v-303h-236v301h-336v139h336v103l-18 39h-318v139h250z" />
<glyph unicode="&#xa6;" horiz-adv-x="655" d="M233 -281v672h189v-672h-189zM233 731v670h189v-670h-189z" />
<glyph unicode="&#xa7;" d="M109 -96l106 164q164 -140 324 -140q93 0 147.5 36t54.5 97q0 86 -127 125l-219 72q-118 38 -174 92q-86 82 -86 201q0 52 16.5 98t42 75.5t43 44.5t31.5 24q-13 9 -26 22.5t-29.5 38t-26.5 62.5t-10 83q0 151 131 246q109 76 293 76q122 0 223 -38t170 -89l-92 -160 q-55 47 -140.5 79t-160.5 32q-84 0 -141.5 -30.5t-57.5 -92.5q0 -14 3 -26.5t10 -22.5t14 -18t18.5 -15t19 -12t21.5 -10t20 -7.5t20 -6.5t16 -5l207 -68q112 -35 174 -92q84 -84 84 -196q0 -66 -27 -123.5t-52.5 -83t-51.5 -43.5q35 -24 65.5 -80t30.5 -131 q0 -71 -30 -131.5t-77 -102.5q-115 -108 -331 -108q-138 0 -247.5 49.5t-178.5 114.5zM338 600q0 -97 133 -141l137 -45q115 -39 127 -45q3 1 8 4t17 13t21.5 22.5t17.5 33.5t8 45q0 98 -135 142l-135 45q-107 35 -127 47q-3 -1 -8 -4t-17 -13.5t-21.5 -23t-17.5 -34 t-8 -46.5z" />
<glyph unicode="&#xa8;" horiz-adv-x="874" d="M150 1204q0 51 32 84t84 33t84.5 -32.5t32.5 -82.5q0 -52 -32.5 -85.5t-84.5 -33.5t-84 33.5t-32 83.5zM494 1204q0 52 31 84.5t83 32.5t84.5 -32.5t32.5 -82.5q0 -52 -31.5 -85.5t-83.5 -33.5t-84 33.5t-32 83.5z" />
<glyph unicode="&#xa9;" horiz-adv-x="1497" d="M74 651q0 188 88 342.5t242.5 243t343.5 88.5t343 -88t242 -242.5t88 -343.5t-88 -343.5t-242 -242.5t-343 -88q-188 0 -342.5 88t-243 242.5t-88.5 343.5zM174 651q0 -156 77 -288.5t209 -209.5t288 -77q117 0 223 45.5t182.5 122.5t122 183.5t45.5 223.5 q0 155 -76.5 287t-208.5 209.5t-288 77.5q-155 0 -287 -77t-209.5 -209t-77.5 -288zM383 653q0 175 110 282t259 107q66 0 121.5 -14.5t90.5 -37t52 -37.5t28 -29l-77 -115q-82 94 -199 94q-94 0 -158.5 -62t-64.5 -186q0 -120 65.5 -183.5t157.5 -63.5q51 0 97 19.5 t66 37.5t34 35l79 -113q-12 -15 -28.5 -30t-51.5 -39t-90 -39t-120 -15q-150 0 -260.5 107t-110.5 282z" />
<glyph unicode="&#xaa;" horiz-adv-x="794" d="M55 803q0 45 19 83t45 60.5t61.5 40.5t59.5 25t47 12q98 20 215 20v25q0 109 -148 109q-61 0 -122.5 -21.5t-94.5 -42.5l-53 135q42 24 124.5 48t164.5 24q165 0 243 -68q86 -75 86 -209v-278q0 -85 35 -162l-213 -2q-22 43 -22 84q-81 -98 -221 -98q-95 0 -160.5 52.5 t-65.5 162.5zM254 819q0 -92 115 -92q40 0 80 25t53 63l2 123q-66 0 -129 -14q-19 -4 -31 -7.5t-31 -11.5t-30.5 -18t-20 -28t-8.5 -40z" />
<glyph unicode="&#xab;" horiz-adv-x="1024" d="M90 451v112l301 363l117 -97l-262 -321l262 -322l-117 -98zM512 451v112l301 363l117 -97l-262 -321l262 -322l-115 -98z" />
<glyph unicode="&#xac;" d="M86 743v189h915v-608h-194v419h-721z" />
<glyph unicode="&#xad;" horiz-adv-x="645" d="M66 391v189h514v-189h-514z" />
<glyph unicode="&#xae;" horiz-adv-x="1374" d="M70 950q0 173 82.5 317t226.5 227t317 83t317.5 -82.5t228 -227t83.5 -317.5t-83.5 -317t-228 -226.5t-317.5 -82.5q-172 0 -316 82.5t-227 226.5t-83 317zM162 950q0 -224 155 -379t379 -155q147 0 270 70.5t194 193.5t71 270t-70.5 270t-193.5 194t-271 71 q-147 0 -270 -71t-193.5 -194t-70.5 -270zM461 602v701h270q103 0 173.5 -56t70.5 -160q0 -51 -17 -91t-43 -61.5t-45 -32t-34 -13.5l168 -287h-164l-152 270h-82v-270h-145zM604 981h101q51 0 82.5 26t31.5 80q0 53 -31 80t-83 27h-101v-213z" />
<glyph unicode="&#xaf;" horiz-adv-x="874" d="M135 1137v135h604v-135h-604z" />
<glyph unicode="&#xb0;" horiz-adv-x="778" d="M121 1053q0 113 77 190.5t191 77.5t191 -77t77 -191t-77 -192.5t-191 -78.5t-191 78.5t-77 192.5zM233 1053q0 -69 44.5 -114.5t111.5 -45.5t111.5 45.5t44.5 114.5t-44 113t-112 44t-112 -44t-44 -113z" />
<glyph unicode="&#xb1;" d="M102 0v190h914v-190h-914zM102 621v190h363v348h188v-348h363v-190h-363v-349h-188v349h-363z" />
<glyph unicode="&#xb2;" horiz-adv-x="849" d="M94 782q13 109 72.5 196t183.5 183q38 29 53.5 41.5t39.5 33.5t33 34t16.5 30.5t7.5 34.5q0 52 -33.5 80.5t-91.5 28.5q-99 0 -193 -94l-78 125q17 21 49 44.5t100.5 47.5t145.5 24q127 0 206 -64.5t79 -172.5q0 -47 -13.5 -86t-43.5 -73t-58 -57t-75 -57 q-45 -32 -67 -48.5t-53.5 -47.5t-37.5 -53h383v-150h-625z" />
<glyph unicode="&#xb3;" horiz-adv-x="849" d="M115 885l80 116q33 -33 86.5 -63.5t107.5 -30.5q63 0 103 30t40 83q0 52 -34 80t-88 28h-101v132h90q51 0 83 24.5t32 69.5q0 44 -37 69t-90 25q-96 0 -176 -70l-66 119q33 33 101.5 63.5t161.5 30.5q114 0 198 -54.5t84 -152.5q0 -77 -40.5 -122t-92.5 -58 q62 -14 108 -65t46 -133q0 -74 -46.5 -130t-116.5 -83t-149 -27q-157 0 -284 119z" />
<glyph unicode="&#xb4;" horiz-adv-x="874" d="M246 1071l139 266h244l-205 -266h-178z" />
<glyph unicode="&#xb5;" horiz-adv-x="1107" d="M125 -340v1301h248v-562q0 -105 35.5 -157t121.5 -52q55 0 100 35.5t68.5 80t28.5 87.5v568h250v-961h-234l-14 162q-32 -59 -93 -108.5t-124 -49.5q-41 0 -75 8t-48 16l-14 9v-377h-250z" />
<glyph unicode="&#xb6;" d="M80 813q0 226 132 356.5t368 130.5h489v-133h-113v-1448h-143v1448h-149v-841h-82q-236 0 -369 130.5t-133 356.5z" />
<glyph unicode="&#xb7;" horiz-adv-x="559" d="M131 537q0 62 42 103.5t106 41.5q66 0 107.5 -40.5t41.5 -102.5t-41.5 -104t-105.5 -42q-66 0 -108 41t-42 103z" />
<glyph unicode="&#xb8;" horiz-adv-x="874" d="M217 -264l180 264h178l-122 -264h-236z" />
<glyph unicode="&#xb9;" horiz-adv-x="849" d="M164 1446q10 0 54 16t75 33q35 19 65 44.5t39 43.5h150v-801h-197v584q-56 -40 -147 -55z" />
<glyph unicode="&#xba;" horiz-adv-x="843" d="M55 952q0 168 100.5 268.5t266.5 100.5q165 0 265.5 -100.5t100.5 -268.5t-100.5 -268t-265.5 -100q-166 0 -266.5 100t-100.5 268zM260 954q0 -101 43 -162t119 -61t119 61t43 162t-43 161.5t-119 60.5t-119 -60.5t-43 -161.5z" />
<glyph unicode="&#xbb;" horiz-adv-x="1024" d="M94 184l262 322l-262 321l115 99l303 -363v-112l-301 -363zM516 184l262 322l-262 321l117 99l301 -363v-112l-301 -363z" />
<glyph unicode="&#xbc;" horiz-adv-x="1697" d="M39 1194q10 0 54 16t75 33q35 19 65 44.5t39 43.5h148v-801h-195v584q-14 -14 -67 -31q-58 -24 -80 -24zM313 45l779 1305l110 -70l-776 -1305zM874 160v137l369 500h213v-500h117v-137h-117v-160h-186v160h-396zM1024 297h248v348z" />
<glyph unicode="&#xbd;" horiz-adv-x="1697" d="M39 1194q10 0 54 16t75 33q35 19 65 44.5t39 43.5h148v-801h-195v584q-14 -14 -67 -31q-58 -24 -80 -24zM313 45l779 1305l112 -70l-778 -1305zM979 0q6 54 25 104t37.5 81t55 70.5t51.5 52.5t54 46q15 12 49 39t51 41.5t39 36.5t31.5 42t9.5 40q0 52 -33 79t-92 27 q-102 0 -192 -94l-78 127q19 22 50.5 45t100 47.5t144.5 24.5q128 0 206.5 -65.5t78.5 -172.5q0 -21 -4 -42t-10 -38t-17.5 -35.5t-20.5 -31.5t-24 -29t-24.5 -25t-26.5 -22.5t-23.5 -19t-22.5 -16.5t-18 -13q-6 -5 -32.5 -25.5t-38.5 -31t-32 -28.5t-30.5 -33.5 t-15.5 -30.5h377v-150h-625z" />
<glyph unicode="&#xbe;" horiz-adv-x="1697" d="M53 637l80 117q33 -33 87 -64t108 -31q63 0 103 30t40 83q0 52 -35 80.5t-88 28.5h-100v131h90q51 0 83 24.5t32 69.5q0 44 -37 69t-90 25q-96 0 -176 -70l-66 119q34 34 101.5 64t160.5 30q115 0 199 -54t84 -152q0 -77 -40.5 -122.5t-92.5 -58.5q62 -14 107.5 -65 t45.5 -133q0 -74 -46 -130t-116 -83t-149 -27q-158 0 -285 119zM406 45l776 1305l112 -70l-776 -1305zM926 160v137l368 500h213v-500h117v-137h-117v-160h-186v160h-395zM1075 297h248v348z" />
<glyph unicode="&#xbf;" horiz-adv-x="919" d="M59 -39q0 58 15 107.5t41.5 85t48.5 57.5t48 44q6 5 9 7l123 103q40 33 52 57.5t14 64.5v68h202l2 -86q2 -78 -14 -122.5t-74 -90.5l-108 -90q-4 -3 -22.5 -18t-25 -21.5t-21.5 -21t-22 -25t-16 -25.5t-12.5 -30.5t-3.5 -32.5q0 -66 50.5 -109t148.5 -43q88 0 158.5 38.5 t107.5 78.5l108 -164q-17 -19 -44.5 -39.5t-78 -49.5t-126 -47.5t-160.5 -18.5q-179 0 -289.5 94t-110.5 229zM362 836q0 62 42.5 103.5t107.5 41.5q64 0 105.5 -40.5t41.5 -102.5t-41.5 -104t-105.5 -42q-66 0 -108 41t-42 103z" />
<glyph unicode="&#xc0;" horiz-adv-x="1204" d="M-10 0l456 1300h308l460 -1300h-274l-94 285h-508l-94 -285h-254zM319 1679h242l139 -266h-176zM399 487h383l-190 574z" />
<glyph unicode="&#xc1;" horiz-adv-x="1204" d="M-10 0l456 1300h308l460 -1300h-274l-94 285h-508l-94 -285h-254zM399 487h383l-190 574zM502 1413l139 266h244l-205 -266h-178z" />
<glyph unicode="&#xc2;" horiz-adv-x="1204" d="M-10 0l456 1300h308l460 -1300h-274l-94 285h-508l-94 -285h-254zM301 1413l180 266h232l180 -266h-174l-121 168l-125 -168h-172zM399 487h383l-190 574z" />
<glyph unicode="&#xc3;" horiz-adv-x="1204" d="M-10 0l456 1300h308l460 -1300h-274l-94 285h-508l-94 -285h-254zM274 1444q0 89 57 156t138 67q26 0 48.5 -4t42 -12.5t29.5 -14t27 -17.5t19 -13q5 -3 18.5 -11.5t19.5 -12t16.5 -8.5t20 -7t19.5 -2q29 0 51 24.5t29 73.5l119 -14q0 -89 -57 -156.5t-138 -67.5 q-26 0 -48.5 4t-41.5 12.5t-29.5 14.5t-27 17.5t-19.5 13.5q-5 3 -18.5 11.5t-19.5 12t-16.5 8.5t-20 7t-19.5 2q-29 0 -51 -24.5t-29 -73.5zM399 487h383l-190 574z" />
<glyph unicode="&#xc4;" horiz-adv-x="1204" d="M-10 0l456 1300h308l460 -1300h-274l-94 285h-508l-94 -285h-254zM305 1546q0 51 32.5 84t84.5 33t84.5 -32.5t32.5 -82.5q0 -51 -32.5 -84.5t-84.5 -33.5t-84.5 33t-32.5 83zM399 487h383l-190 574zM649 1546q0 52 31.5 84.5t83.5 32.5t84.5 -32.5t32.5 -82.5 q0 -52 -31.5 -85t-83.5 -33t-84.5 33t-32.5 83z" />
<glyph unicode="&#xc5;" horiz-adv-x="1204" d="M-10 0l456 1300h308l460 -1300h-274l-94 285h-508l-94 -285h-254zM399 487h383l-190 574zM418 1575q0 79 52 130.5t132 51.5t132 -51.5t52 -130.5t-52 -130.5t-132 -51.5t-132 51.5t-52 130.5zM512 1575q0 -38 26 -64t64 -26t64 26t26 64t-26 64t-64 26t-64 -26t-26 -64z " />
<glyph unicode="&#xc6;" horiz-adv-x="1726" d="M-82 0l739 1300h973v-202h-536v-316h495v-204h-495v-369h555v-209h-811v332h-455l-180 -332h-285zM481 530h357v572h-43z" />
<glyph unicode="&#xc7;" horiz-adv-x="1220" d="M76 651q0 156 51.5 285t139.5 212t201 128t239 45q93 0 176 -24t133 -53.5t92 -68.5t54.5 -56t19.5 -29l-135 -170q-4 7 -12.5 19t-38.5 42.5t-64.5 53.5t-92 42t-120.5 19q-170 0 -275.5 -121t-105.5 -320q0 -200 103.5 -321t273.5 -121q63 0 121 18.5t96 44.5t66.5 52 t41.5 44l13 19l133 -174q-5 -8 -14.5 -21.5t-44.5 -49.5t-77 -65t-113 -57.5t-151 -37.5l-122 -256h-242l176 258q-80 9 -153.5 38t-141.5 84t-118 129t-79.5 180.5t-29.5 231.5z" />
<glyph unicode="&#xc8;" horiz-adv-x="1081" d="M150 0v1300h835v-202h-577v-316h536v-204h-536v-369h596v-209h-854zM317 1679h242l139 -266h-176z" />
<glyph unicode="&#xc9;" horiz-adv-x="1081" d="M150 0v1300h835v-202h-577v-316h536v-204h-536v-369h596v-209h-854zM424 1413l139 266h244l-205 -266h-178z" />
<glyph unicode="&#xca;" horiz-adv-x="1081" d="M150 0v1300h835v-202h-577v-316h536v-204h-536v-369h596v-209h-854zM270 1413l181 266h231l180 -266h-174l-121 168l-125 -168h-172z" />
<glyph unicode="&#xcb;" horiz-adv-x="1081" d="M150 0v1300h835v-202h-577v-316h536v-204h-536v-369h596v-209h-854zM279 1546q0 51 32 84t84 33t84.5 -32.5t32.5 -82.5q0 -51 -32.5 -84.5t-84.5 -33.5t-84 33t-32 83zM623 1546q0 52 31 84.5t83 32.5t84.5 -32.5t32.5 -82.5q0 -52 -31.5 -85t-83.5 -33t-84 33t-32 83z " />
<glyph unicode="&#xcc;" horiz-adv-x="559" d="M27 1679h241l140 -266h-177zM150 0v1300h258v-1300h-258z" />
<glyph unicode="&#xcd;" horiz-adv-x="559" d="M150 0v1300h258v-1300h-258zM150 1413l139 266h243l-204 -266h-178z" />
<glyph unicode="&#xce;" horiz-adv-x="559" d="M-16 1413l180 266h231l180 -266h-174l-120 168l-125 -168h-172zM150 0v1300h258v-1300h-258z" />
<glyph unicode="&#xcf;" horiz-adv-x="559" d="M-10 1546q0 51 32 84t84 33t84.5 -32.5t32.5 -82.5q0 -51 -32.5 -84.5t-84.5 -33.5t-84 33t-32 83zM150 0v1300h258v-1300h-258zM334 1546q0 52 31.5 84.5t83.5 32.5t84 -32.5t32 -82.5q0 -52 -31 -85t-83 -33t-84.5 33t-32.5 83z" />
<glyph unicode="&#xd0;" horiz-adv-x="1341" d="M43 580v176h107v544h448q295 0 467 -155q91 -82 146 -207.5t55 -286.5q0 -163 -55 -287.5t-146 -207.5q-173 -156 -465 -156h-450v580h-107zM408 207h186q183 0 289 106q118 118 118 340q0 223 -118 338q-104 107 -289 107h-186v-342h247v-176h-247v-373z" />
<glyph unicode="&#xd1;" horiz-adv-x="1374" d="M150 0v1300h276l555 -894v894h244v-1300h-248l-584 942v-942h-243zM360 1444q0 89 57 156t138 67q26 0 48.5 -4t42 -12.5t29.5 -14t27 -17.5t19 -13q5 -3 18.5 -11.5t19.5 -12t16.5 -8.5t20 -7t19.5 -2q29 0 51 24.5t29 73.5l119 -14q0 -89 -57 -156.5t-138 -67.5 q-26 0 -48.5 4t-41.5 12.5t-29.5 14.5t-27 17.5t-19.5 13.5q-5 3 -18.5 11.5t-19.5 12t-16.5 8.5t-20 7t-19.5 2q-29 0 -51 -24.5t-29 -73.5z" />
<glyph unicode="&#xd2;" horiz-adv-x="1425" d="M76 651q0 301 173.5 485.5t463.5 184.5t463.5 -184.5t173.5 -485.5t-173.5 -486t-463.5 -185t-463.5 184.5t-173.5 486.5zM340 653q0 -201 99 -327.5t274 -126.5q174 0 273 126t99 328q0 200 -99 326.5t-273 126.5q-175 0 -274 -126t-99 -327zM422 1679h242l139 -266 h-176z" />
<glyph unicode="&#xd3;" horiz-adv-x="1425" d="M76 651q0 301 173.5 485.5t463.5 184.5t463.5 -184.5t173.5 -485.5t-173.5 -486t-463.5 -185t-463.5 184.5t-173.5 486.5zM340 653q0 -201 99 -327.5t274 -126.5q174 0 273 126t99 328q0 200 -99 326.5t-273 126.5q-175 0 -274 -126t-99 -327zM621 1413l139 266h244 l-205 -266h-178z" />
<glyph unicode="&#xd4;" horiz-adv-x="1425" d="M76 651q0 301 173.5 485.5t463.5 184.5t463.5 -184.5t173.5 -485.5t-173.5 -486t-463.5 -185t-463.5 184.5t-173.5 486.5zM340 653q0 -201 99 -327.5t274 -126.5q174 0 273 126t99 328q0 200 -99 326.5t-273 126.5q-175 0 -274 -126t-99 -327zM418 1413l180 266h231 l181 -266h-174l-121 168l-125 -168h-172z" />
<glyph unicode="&#xd5;" horiz-adv-x="1425" d="M76 651q0 301 173.5 485.5t463.5 184.5t463.5 -184.5t173.5 -485.5t-173.5 -486t-463.5 -185t-463.5 184.5t-173.5 486.5zM340 653q0 -201 99 -327.5t274 -126.5q174 0 273 126t99 328q0 200 -99 326.5t-273 126.5q-175 0 -274 -126t-99 -327zM385 1444q0 89 57 156 t138 67q26 0 48.5 -4t41.5 -12.5t29 -14t26.5 -17t19.5 -13.5q4 -2 18.5 -11.5t20 -12t16.5 -8t20.5 -7.5t19.5 -2q29 0 51 24.5t29 73.5l118 -14q0 -89 -57 -156.5t-137 -67.5q-26 0 -48.5 4t-41.5 12.5t-29.5 14.5t-27 17.5t-19.5 13.5q-5 3 -18.5 11.5t-19.5 12 t-16.5 8.5t-20 7t-19.5 2q-29 0 -51 -24.5t-29 -73.5z" />
<glyph unicode="&#xd6;" horiz-adv-x="1425" d="M76 651q0 301 173.5 485.5t463.5 184.5t463.5 -184.5t173.5 -485.5t-173.5 -486t-463.5 -185t-463.5 184.5t-173.5 486.5zM340 653q0 -201 99 -327.5t274 -126.5q174 0 273 126t99 328q0 200 -99 326.5t-273 126.5q-175 0 -274 -126t-99 -327zM424 1546q0 51 32.5 84 t84.5 33t84 -32.5t32 -82.5q0 -52 -32 -85t-84 -33t-84.5 33t-32.5 83zM768 1546q0 52 31.5 84.5t83.5 32.5t84 -32.5t32 -82.5q0 -52 -31 -85t-83 -33t-84.5 33t-32.5 83z" />
<glyph unicode="&#xd7;" d="M156 358l270 271l-270 270l133 133l270 -270l270 270l134 -133l-271 -270l271 -271l-134 -135l-270 273l-270 -273z" />
<glyph unicode="&#xd8;" horiz-adv-x="1425" d="M76 651q0 301 173.5 485.5t463.5 184.5q209 0 364 -102l113 143l117 -90l-119 -150q162 -186 162 -471q0 -302 -173.5 -486.5t-463.5 -184.5q-207 0 -359 98l-118 -150l-117 90l123 154q-166 183 -166 479zM340 653q0 -159 66 -276l524 659q-89 70 -217 70 q-176 0 -274.5 -125.5t-98.5 -327.5zM504 264q87 -65 209 -65q174 0 273 126t99 328q0 155 -59 267z" />
<glyph unicode="&#xd9;" horiz-adv-x="1310" d="M135 514v786h258v-798q0 -85 11 -130.5t42 -82.5q69 -82 207 -82q140 0 209 82q31 37 42 82.5t11 130.5v798h259v-784q0 -136 -25.5 -228t-89.5 -163q-130 -145 -404 -145q-276 0 -403 145q-64 70 -90.5 162t-26.5 227zM393 1679h242l139 -266h-176z" />
<glyph unicode="&#xda;" horiz-adv-x="1310" d="M135 514v786h258v-798q0 -85 11 -130.5t42 -82.5q69 -82 207 -82q140 0 209 82q31 37 42 82.5t11 130.5v798h259v-784q0 -136 -25.5 -228t-89.5 -163q-130 -145 -404 -145q-276 0 -403 145q-64 70 -90.5 162t-26.5 227zM535 1413l139 266h244l-205 -266h-178z" />
<glyph unicode="&#xdb;" horiz-adv-x="1310" d="M135 514v786h258v-798q0 -85 11 -130.5t42 -82.5q69 -82 207 -82q140 0 209 82q31 37 42 82.5t11 130.5v798h259v-784q0 -136 -25.5 -228t-89.5 -163q-130 -145 -404 -145q-276 0 -403 145q-64 70 -90.5 162t-26.5 227zM358 1413l181 266h231l180 -266h-174l-121 168 l-125 -168h-172z" />
<glyph unicode="&#xdc;" horiz-adv-x="1310" d="M135 514v786h258v-798q0 -85 11 -130.5t42 -82.5q69 -82 207 -82q140 0 209 82q31 37 42 82.5t11 130.5v798h259v-784q0 -136 -25.5 -228t-89.5 -163q-130 -145 -404 -145q-276 0 -403 145q-64 70 -90.5 162t-26.5 227zM367 1546q0 51 32 84t84 33t84.5 -32.5t32.5 -82.5 q0 -51 -32.5 -84.5t-84.5 -33.5t-84 33t-32 83zM711 1546q0 52 31 84.5t83 32.5t84.5 -32.5t32.5 -82.5q0 -52 -31.5 -85t-83.5 -33t-84 33t-32 83z" />
<glyph unicode="&#xdd;" horiz-adv-x="1153" d="M0 1300h285l295 -569l292 569h281l-446 -770v-530h-258v530zM459 1413l139 266h244l-205 -266h-178z" />
<glyph unicode="&#xde;" horiz-adv-x="1142" d="M150 0v1300h258v-198h174q215 0 344 -98q139 -108 139 -322q0 -215 -139 -324q-63 -49 -156.5 -72.5t-187.5 -23.5h-174v-262h-258zM408 459h131q69 0 110 9t78 36q80 60 80 178t-80 176q-35 27 -76.5 36t-109.5 9h-133v-444z" />
<glyph unicode="&#xdf;" horiz-adv-x="1136" d="M129 0v932q0 205 121 317q54 48 130 77.5t204 29.5q166 0 275.5 -88t109.5 -228q0 -67 -23 -122.5t-57.5 -88.5t-67 -52t-59.5 -23q130 -20 218.5 -113.5t88.5 -245.5q0 -128 -57.5 -224.5t-149.5 -143.5t-203 -47q-65 0 -115.5 11t-66.5 21l35 176q50 -20 113 -20 q33 0 65 13t61.5 39.5t47.5 75.5t18 112q0 65 -22.5 113.5t-60.5 76t-81 40.5t-90 13h-59v178h49q86 0 134 50t48 133q0 79 -47 124.5t-119 45.5q-84 0 -133 -49q-57 -57 -57 -170v-963h-250z" />
<glyph unicode="&#xe0;" horiz-adv-x="1015" d="M59 274q0 223 279 291q135 33 321 33v45q0 156 -198 156q-77 0 -155.5 -24.5t-135.5 -61.5l-68 172q72 39 173 66.5t206 27.5q207 0 314 -90q54 -43 83 -109.5t29 -175.5v-389q0 -132 45 -215h-266q-20 60 -20 111q-114 -131 -291 -131q-60 0 -114 16.5t-100.5 49.5 t-74 92t-27.5 136zM246 1337h241l140 -266h-176zM311 293q0 -75 43.5 -107t106.5 -32q57 0 110.5 30.5t87.5 89.5v177q-89 0 -180 -15q-168 -28 -168 -143z" />
<glyph unicode="&#xe1;" horiz-adv-x="1015" d="M59 274q0 223 279 291q135 33 321 33v45q0 156 -198 156q-77 0 -155.5 -24.5t-135.5 -61.5l-68 172q72 39 173 66.5t206 27.5q207 0 314 -90q54 -43 83 -109.5t29 -175.5v-389q0 -132 45 -215h-266q-20 60 -20 111q-114 -131 -291 -131q-60 0 -114 16.5t-100.5 49.5 t-74 92t-27.5 136zM311 293q0 -75 43.5 -107t106.5 -32q57 0 110.5 30.5t87.5 89.5v177q-89 0 -180 -15q-168 -28 -168 -143zM379 1071l139 266h244l-205 -266h-178z" />
<glyph unicode="&#xe2;" horiz-adv-x="1015" d="M59 274q0 223 279 291q135 33 321 33v45q0 156 -198 156q-77 0 -155.5 -24.5t-135.5 -61.5l-68 172q72 39 173 66.5t206 27.5q207 0 314 -90q54 -43 83 -109.5t29 -175.5v-389q0 -132 45 -215h-266q-20 60 -20 111q-114 -131 -291 -131q-60 0 -114 16.5t-100.5 49.5 t-74 92t-27.5 136zM209 1071l180 266h232l180 -266h-174l-121 168l-125 -168h-172zM311 293q0 -75 43.5 -107t106.5 -32q57 0 110.5 30.5t87.5 89.5v177q-89 0 -180 -15q-168 -28 -168 -143z" />
<glyph unicode="&#xe3;" horiz-adv-x="1015" d="M59 274q0 223 279 291q135 33 321 33v45q0 156 -198 156q-77 0 -155.5 -24.5t-135.5 -61.5l-68 172q72 39 173 66.5t206 27.5q207 0 314 -90q54 -43 83 -109.5t29 -175.5v-389q0 -132 45 -215h-266q-20 60 -20 111q-114 -131 -291 -131q-60 0 -114 16.5t-100.5 49.5 t-74 92t-27.5 136zM195 1102q0 89 56.5 156t137.5 67q26 0 48.5 -4t42 -12.5t29.5 -14t27 -17.5t19 -13q5 -3 18.5 -11.5t19.5 -12t16.5 -8.5t20 -7t19.5 -2q29 0 51 24.5t29 73.5l119 -14q0 -89 -57 -156.5t-138 -67.5q-26 0 -48.5 4t-41.5 12.5t-29.5 14.5t-27 17.5 t-19.5 13.5q-5 3 -18.5 11.5t-19.5 12t-16.5 8.5t-20 7t-19.5 2q-29 0 -51 -25t-29 -74zM311 293q0 -75 43.5 -107t106.5 -32q57 0 110.5 30.5t87.5 89.5v177q-89 0 -180 -15q-168 -28 -168 -143z" />
<glyph unicode="&#xe4;" horiz-adv-x="1015" d="M59 274q0 223 279 291q135 33 321 33v45q0 156 -198 156q-77 0 -155.5 -24.5t-135.5 -61.5l-68 172q72 39 173 66.5t206 27.5q207 0 314 -90q54 -43 83 -109.5t29 -175.5v-389q0 -132 45 -215h-266q-20 60 -20 111q-114 -131 -291 -131q-60 0 -114 16.5t-100.5 49.5 t-74 92t-27.5 136zM219 1204q0 51 32.5 84t84.5 33t84.5 -32.5t32.5 -82.5q0 -52 -32.5 -85.5t-84.5 -33.5t-84.5 33.5t-32.5 83.5zM311 293q0 -75 43.5 -107t106.5 -32q57 0 110.5 30.5t87.5 89.5v177q-89 0 -180 -15q-168 -28 -168 -143zM563 1204q0 52 31.5 84.5 t83.5 32.5t84.5 -32.5t32.5 -82.5q0 -52 -31.5 -85.5t-83.5 -33.5t-84.5 33.5t-32.5 83.5z" />
<glyph unicode="&#xe5;" horiz-adv-x="1015" d="M59 274q0 223 279 291q135 33 321 33v45q0 156 -198 156q-77 0 -155.5 -24.5t-135.5 -61.5l-68 172q72 39 173 66.5t206 27.5q207 0 314 -90q54 -43 83 -109.5t29 -175.5v-389q0 -132 45 -215h-266q-20 60 -20 111q-114 -131 -291 -131q-60 0 -114 16.5t-100.5 49.5 t-74 92t-27.5 136zM311 293q0 -75 43.5 -107t106.5 -32q57 0 110.5 30.5t87.5 89.5v177q-89 0 -180 -15q-168 -28 -168 -143zM319 1233q0 79 52.5 130.5t132.5 51.5t132 -51.5t52 -130.5t-52 -130.5t-132 -51.5t-132.5 51.5t-52.5 130.5zM414 1233q0 -38 26 -64t64 -26 t64 26t26 64t-26 64t-64 26t-64 -26t-26 -64z" />
<glyph unicode="&#xe6;" horiz-adv-x="1615" d="M59 268q0 59 21.5 108t51.5 79t72 53t72.5 33t63.5 18q125 29 319 29v55q0 156 -198 156q-77 0 -155.5 -24.5t-135.5 -61.5l-68 172q72 39 173 66.5t206 27.5q161 0 254 -59q29 -19 49.5 -43.5t24.5 -36.5q19 22 25 28.5t38.5 33t62 39.5t82 25.5t111.5 12.5 q202 0 318.5 -133t116.5 -344v-66h-662v-16q7 -122 76 -187t186 -65q53 0 104.5 12t89.5 31t58.5 31.5t34.5 23.5l88 -151q-5 -5 -15.5 -14.5t-48 -32.5t-80.5 -41t-114.5 -32.5t-149.5 -14.5q-243 0 -376 170q-75 -90 -165.5 -130t-209.5 -40q-61 0 -115.5 16t-101.5 48.5 t-75 90t-28 133.5zM311 287q0 -70 46 -101.5t110 -31.5q58 0 118.5 33t96.5 94q-29 83 -29 159q-98 0 -164 -12q-178 -31 -178 -141zM899 592h426q0 92 -52 154.5t-153 62.5q-99 0 -155.5 -65t-65.5 -152z" />
<glyph unicode="&#xe7;" horiz-adv-x="937" d="M59 479q0 119 41 216t109 158t154 93.5t180 32.5q69 0 131.5 -15t102 -35t72 -45t45.5 -39.5t19 -23.5l-114 -153q-4 4 -11 11.5t-30.5 25.5t-48.5 32t-63.5 25.5t-76.5 11.5q-112 0 -187 -73t-75 -218q0 -146 74.5 -219.5t189.5 -73.5q40 0 79.5 11t66.5 26.5t49 31.5 t32 27l11 11l109 -164q-11 -14 -29.5 -30.5t-54.5 -42t-93.5 -46t-124.5 -28.5l-118 -250h-238l172 252q-67 13 -128.5 45t-118.5 88t-91.5 148.5t-34.5 209.5z" />
<glyph unicode="&#xe8;" horiz-adv-x="1024" d="M59 479q0 233 134.5 366.5t345.5 133.5q201 0 316.5 -132.5t115.5 -348.5v-78h-660q4 -121 74.5 -186.5t187.5 -65.5q53 0 104.5 12t89.5 31t58.5 31.5t34.5 23.5l86 -151q-5 -5 -15 -14.5t-47 -32.5t-80 -41t-114 -32.5t-149 -14.5q-215 0 -348.5 132.5t-133.5 366.5z M262 1337h242l139 -266h-176zM307 584h426q0 99 -51.5 162t-153.5 63q-100 0 -156.5 -65.5t-64.5 -159.5z" />
<glyph unicode="&#xe9;" horiz-adv-x="1024" d="M59 479q0 233 134.5 366.5t345.5 133.5q201 0 316.5 -132.5t115.5 -348.5v-78h-660q4 -121 74.5 -186.5t187.5 -65.5q53 0 104.5 12t89.5 31t58.5 31.5t34.5 23.5l86 -151q-5 -5 -15 -14.5t-47 -32.5t-80 -41t-114 -32.5t-149 -14.5q-215 0 -348.5 132.5t-133.5 366.5z M307 584h426q0 99 -51.5 162t-153.5 63q-100 0 -156.5 -65.5t-64.5 -159.5zM403 1071l140 266h243l-204 -266h-179z" />
<glyph unicode="&#xea;" horiz-adv-x="1024" d="M59 479q0 233 134.5 366.5t345.5 133.5q201 0 316.5 -132.5t115.5 -348.5v-78h-660q4 -121 74.5 -186.5t187.5 -65.5q53 0 104.5 12t89.5 31t58.5 31.5t34.5 23.5l86 -151q-5 -5 -15 -14.5t-47 -32.5t-80 -41t-114 -32.5t-149 -14.5q-215 0 -348.5 132.5t-133.5 366.5z M248 1071l180 266h231l181 -266h-174l-121 168l-125 -168h-172zM307 584h426q0 99 -51.5 162t-153.5 63q-100 0 -156.5 -65.5t-64.5 -159.5z" />
<glyph unicode="&#xeb;" horiz-adv-x="1024" d="M59 479q0 233 134.5 366.5t345.5 133.5q201 0 316.5 -132.5t115.5 -348.5v-78h-660q4 -121 74.5 -186.5t187.5 -65.5q53 0 104.5 12t89.5 31t58.5 31.5t34.5 23.5l86 -151q-5 -5 -15 -14.5t-47 -32.5t-80 -41t-114 -32.5t-149 -14.5q-215 0 -348.5 132.5t-133.5 366.5z M250 1204q0 51 32.5 84t84.5 33t84 -32.5t32 -82.5q0 -52 -32 -85.5t-84 -33.5t-84.5 33.5t-32.5 83.5zM307 584h426q0 99 -51.5 162t-153.5 63q-100 0 -156.5 -65.5t-64.5 -159.5zM594 1204q0 52 31.5 84.5t83.5 32.5t84 -32.5t32 -82.5q0 -52 -31 -85.5t-83 -33.5 t-84.5 33.5t-32.5 83.5z" />
<glyph unicode="&#xec;" horiz-adv-x="509" d="M0 1337h242l139 -266h-176zM129 0v961h250v-961h-250z" />
<glyph unicode="&#xed;" horiz-adv-x="509" d="M129 0v961h250v-961h-250zM129 1071l139 266h244l-205 -266h-178z" />
<glyph unicode="&#xee;" horiz-adv-x="509" d="M-41 1071l180 266h232l180 -266h-174l-121 168l-125 -168h-172zM129 0v961h250v-961h-250z" />
<glyph unicode="&#xef;" horiz-adv-x="509" d="M-35 1204q0 51 32.5 84t84.5 33t84.5 -32.5t32.5 -82.5q0 -52 -32.5 -85.5t-84.5 -33.5t-84.5 33.5t-32.5 83.5zM129 0v961h250v-961h-250zM309 1204q0 52 31.5 84.5t83.5 32.5t84.5 -32.5t32.5 -82.5q0 -52 -31.5 -85.5t-83.5 -33.5t-84.5 33.5t-32.5 83.5z" />
<glyph unicode="&#xf0;" horiz-adv-x="1093" d="M59 442q0 130 60 233t158.5 157.5t214.5 54.5q93 0 158 -34.5t89 -64.5q-52 146 -204 283l-162 -113l-76 99l137 92q-28 23 -85.5 57t-92.5 47l66 136q164 -56 260 -125l168 118l77 -98l-137 -92q40 -31 87.5 -80t78.5 -90q178 -228 178 -537q0 -230 -133 -367.5 t-352 -137.5t-354.5 129t-135.5 333zM315 449q0 -123 61.5 -202t170.5 -79q107 0 169 79.5t62 201.5q0 123 -61.5 201.5t-169.5 78.5q-109 0 -170.5 -78t-61.5 -202z" />
<glyph unicode="&#xf1;" horiz-adv-x="1128" d="M129 0v961h233l17 -162q49 76 126.5 128t182.5 52q160 0 240 -93t80 -272v-614h-248v557q0 103 -37.5 158t-128.5 55q-86 0 -143 -66t-72 -141v-563h-250zM252 1102q0 89 56.5 156t137.5 67q26 0 48.5 -4t42 -12.5t29.5 -14t27 -17.5t19 -13q4 -2 18.5 -11.5t20 -12 t16.5 -8t20.5 -7.5t19.5 -2q29 0 50.5 24.5t28.5 73.5l119 -14q0 -89 -57 -156.5t-137 -67.5q-26 0 -48.5 4t-41.5 12.5t-29.5 14.5t-27 17.5t-19.5 13.5q-5 3 -18.5 11.5t-19.5 12t-16.5 8.5t-20 7t-19.5 2q-29 0 -51 -25t-29 -74z" />
<glyph unicode="&#xf2;" horiz-adv-x="1093" d="M59 479q0 230 134 365t354 135t353.5 -135t133.5 -365q0 -229 -133.5 -364t-353.5 -135t-354 134.5t-134 364.5zM266 1337h242l139 -266h-176zM315 479q0 -138 60 -224.5t172 -86.5q111 0 171 86.5t60 224.5t-60 225t-171 87q-112 0 -172 -86.5t-60 -225.5z" />
<glyph unicode="&#xf3;" horiz-adv-x="1093" d="M59 479q0 230 134 365t354 135t353.5 -135t133.5 -365q0 -229 -133.5 -364t-353.5 -135t-354 134.5t-134 364.5zM315 479q0 -138 60 -224.5t172 -86.5q111 0 171 86.5t60 224.5t-60 225t-171 87q-112 0 -172 -86.5t-60 -225.5zM444 1071l140 266h243l-204 -266h-179z" />
<glyph unicode="&#xf4;" horiz-adv-x="1093" d="M59 479q0 230 134 365t354 135t353.5 -135t133.5 -365q0 -229 -133.5 -364t-353.5 -135t-354 134.5t-134 364.5zM252 1071l180 266h232l180 -266h-174l-121 168l-125 -168h-172zM315 479q0 -138 60 -224.5t172 -86.5q111 0 171 86.5t60 224.5t-60 225t-171 87 q-112 0 -172 -86.5t-60 -225.5z" />
<glyph unicode="&#xf5;" horiz-adv-x="1093" d="M59 479q0 230 134 365t354 135t353.5 -135t133.5 -365q0 -229 -133.5 -364t-353.5 -135t-354 134.5t-134 364.5zM223 1102q0 89 57 156t138 67q26 0 48.5 -4t42 -12.5t29.5 -14t27 -17.5t19 -13q5 -3 18.5 -11.5t19.5 -12t16.5 -8.5t20 -7t19.5 -2q29 0 51 24.5t29 73.5 l119 -14q0 -89 -57 -156.5t-138 -67.5q-26 0 -48.5 4t-41.5 12.5t-29.5 14.5t-27 17.5t-19.5 13.5q-5 3 -18.5 11.5t-19.5 12t-16.5 8.5t-20 7t-19.5 2q-29 0 -51 -25t-29 -74zM315 479q0 -138 60 -224.5t172 -86.5q111 0 171 86.5t60 224.5t-60 225t-171 87 q-112 0 -172 -86.5t-60 -225.5z" />
<glyph unicode="&#xf6;" horiz-adv-x="1093" d="M59 479q0 230 134 365t354 135t353.5 -135t133.5 -365q0 -229 -133.5 -364t-353.5 -135t-354 134.5t-134 364.5zM258 1204q0 51 32.5 84t84.5 33t84.5 -32.5t32.5 -82.5q0 -52 -32.5 -85.5t-84.5 -33.5t-84.5 33.5t-32.5 83.5zM315 479q0 -138 60 -224.5t172 -86.5 q111 0 171 86.5t60 224.5t-60 225t-171 87q-112 0 -172 -86.5t-60 -225.5zM602 1204q0 52 31.5 84.5t83.5 32.5t84.5 -32.5t32.5 -82.5q0 -52 -31.5 -85.5t-83.5 -33.5t-84.5 33.5t-32.5 83.5z" />
<glyph unicode="&#xf7;" d="M102 532v191h914v-191h-914zM410 231q0 62 42 103t107 41q64 0 107 -41t43 -103t-42 -102.5t-108 -40.5q-64 0 -106.5 40.5t-42.5 102.5zM410 1024q0 62 42 103.5t107 41.5t107.5 -41t42.5 -102q0 -62 -42.5 -103.5t-107.5 -41.5q-64 0 -106.5 40.5t-42.5 102.5z" />
<glyph unicode="&#xf8;" horiz-adv-x="1093" d="M59 479q0 230 134 365t354 135q172 0 297 -86l94 104l80 -75l-92 -105q108 -137 108 -338q0 -230 -133.5 -364.5t-353.5 -134.5q-168 0 -293 83l-94 -106l-82 76l94 106q-113 132 -113 340zM315 479q0 -83 25 -153l358 403q-59 62 -151 62q-112 0 -172 -86.5t-60 -225.5z M399 227q59 -59 148 -59q111 0 171 86.5t60 224.5q0 80 -22 148z" />
<glyph unicode="&#xf9;" d="M119 344v617h250v-566q0 -101 38 -153t125 -52q83 0 138 63.5t67 139.5v568h250v-961h-233l-15 162q-118 -182 -299 -182q-158 0 -239.5 92t-81.5 272zM276 1337h242l139 -266h-176z" />
<glyph unicode="&#xfa;" d="M119 344v617h250v-566q0 -101 38 -153t125 -52q83 0 138 63.5t67 139.5v568h250v-961h-233l-15 162q-118 -182 -299 -182q-158 0 -239.5 92t-81.5 272zM451 1071l139 266h244l-205 -266h-178z" />
<glyph unicode="&#xfb;" d="M119 344v617h250v-566q0 -101 38 -153t125 -52q83 0 138 63.5t67 139.5v568h250v-961h-233l-15 162q-118 -182 -299 -182q-158 0 -239.5 92t-81.5 272zM258 1071l180 266h232l180 -266h-174l-121 168l-125 -168h-172z" />
<glyph unicode="&#xfc;" d="M119 344v617h250v-566q0 -101 38 -153t125 -52q83 0 138 63.5t67 139.5v568h250v-961h-233l-15 162q-118 -182 -299 -182q-158 0 -239.5 92t-81.5 272zM264 1204q0 51 32.5 84t84.5 33t84.5 -32.5t32.5 -82.5q0 -52 -32.5 -85.5t-84.5 -33.5t-84.5 33.5t-32.5 83.5z M608 1204q0 52 31.5 84.5t83.5 32.5t84.5 -32.5t32.5 -82.5q0 -52 -31.5 -85.5t-83.5 -33.5t-84.5 33.5t-32.5 83.5z" />
<glyph unicode="&#xfd;" horiz-adv-x="1013" d="M14 958h269l231 -714l231 714h263l-406 -1052q-58 -148 -123.5 -206t-171.5 -58q-63 0 -119 12t-81 24l-25 11l53 184q58 -29 109 -29q39 0 60.5 17.5t41.5 68.5l33 88zM399 1071l140 266h243l-204 -266h-179z" />
<glyph unicode="&#xfe;" horiz-adv-x="1155" d="M131 -340v1681h250v-522q9 13 19 26.5t37.5 40t59 45t81 33.5t104.5 15q187 0 299.5 -138.5t112.5 -359.5q0 -220 -118.5 -360.5t-305.5 -140.5t-289 155v-475h-250zM373 483q0 -130 61.5 -218.5t167.5 -88.5q109 0 173.5 88t64.5 217q0 131 -62 219t-170 88 q-107 0 -171 -88t-64 -217z" />
<glyph unicode="&#xff;" horiz-adv-x="1013" d="M14 958h269l231 -714l231 714h263l-406 -1052q-58 -148 -123.5 -206t-171.5 -58q-63 0 -119 12t-81 24l-25 11l53 184q58 -29 109 -29q39 0 60.5 17.5t41.5 68.5l33 88zM227 1204q0 51 32.5 84t84.5 33t84.5 -32.5t32.5 -82.5q0 -52 -32.5 -85.5t-84.5 -33.5t-84.5 33.5 t-32.5 83.5zM571 1204q0 52 31.5 84.5t83.5 32.5t84.5 -32.5t32.5 -82.5q0 -52 -31.5 -85.5t-83.5 -33.5t-84.5 33.5t-32.5 83.5z" />
<glyph unicode="&#x152;" horiz-adv-x="1851" d="M76 651q0 300 173.5 485t459.5 185q68 0 131.5 -15.5t93.5 -30.5l29 -15l-2 40h794v-202h-536v-316h495v-204h-495v-369h555v-209h-811v41q-13 -7 -36 -17t-89 -27t-127 -17q-288 0 -461.5 184.5t-173.5 486.5zM340 653q0 -202 100 -328t269 -126q73 0 136.5 18.5 t90.5 36.5l27 18v756q-4 3 -10.5 8.5t-30.5 19t-51 23.5t-70.5 18.5t-89.5 8.5q-171 0 -271 -125.5t-100 -327.5z" />
<glyph unicode="&#x153;" horiz-adv-x="1730" d="M59 479q0 230 134 365t354 135q65 0 122 -15t94 -35.5t67 -47t43.5 -44t21.5 -32.5q21 29 41 50.5t62.5 54t105 51t139.5 18.5q202 0 318 -132.5t116 -348.5v-78h-661q4 -121 75 -186.5t189 -65.5q53 0 104.5 12t89 31t57 31t34.5 24l88 -151q-5 -5 -15.5 -14.5 t-48 -32.5t-80.5 -41t-114.5 -32.5t-149.5 -14.5q-230 0 -346 172q-2 -2 -13 -16t-16.5 -20t-20 -21.5t-25 -24t-29.5 -22t-36 -21.5t-41.5 -18t-49 -15.5t-56 -9.5t-65.5 -4q-220 0 -354 134.5t-134 364.5zM315 479q0 -138 60 -224.5t172 -86.5q111 0 171 86.5t60 224.5 t-60 225t-171 87q-112 0 -172 -86.5t-60 -225.5zM1012 584h428q0 99 -51.5 162t-153.5 63q-100 0 -156.5 -65.5t-66.5 -159.5z" />
<glyph unicode="&#x178;" horiz-adv-x="1153" d="M0 1300h285l295 -569l292 569h281l-446 -770v-530h-258v530zM293 1546q0 51 32.5 84t84.5 33t84 -32.5t32 -82.5q0 -52 -32 -85t-84 -33t-84.5 33t-32.5 83zM637 1546q0 52 31.5 84.5t83.5 32.5t84 -32.5t32 -82.5q0 -52 -31 -85t-83 -33t-84.5 33t-32.5 83z" />
<glyph unicode="&#x2c6;" horiz-adv-x="874" d="M141 1071l181 266h231l180 -266h-174l-121 168l-125 -168h-172z" />
<glyph unicode="&#x2dc;" horiz-adv-x="874" d="M109 1102q0 89 56.5 156t137.5 67q26 0 48.5 -4t42 -12.5t29.5 -14t27 -17.5t19 -13q5 -3 18.5 -11.5t19.5 -12t16.5 -8.5t20 -7t19.5 -2q29 0 51 24.5t29 73.5l119 -14q0 -89 -57 -156.5t-138 -67.5q-26 0 -48.5 4t-41.5 12.5t-29.5 14.5t-27 17.5t-19.5 13.5 q-5 3 -18.5 11.5t-19.5 12t-16.5 8.5t-20 7t-19.5 2q-29 0 -51 -25t-29 -74z" />
<glyph unicode="&#x2000;" horiz-adv-x="878" />
<glyph unicode="&#x2001;" horiz-adv-x="1757" />
<glyph unicode="&#x2002;" horiz-adv-x="878" />
<glyph unicode="&#x2003;" horiz-adv-x="1757" />
<glyph unicode="&#x2004;" horiz-adv-x="585" />
<glyph unicode="&#x2005;" horiz-adv-x="439" />
<glyph unicode="&#x2006;" horiz-adv-x="292" />
<glyph unicode="&#x2007;" horiz-adv-x="292" />
<glyph unicode="&#x2008;" horiz-adv-x="219" />
<glyph unicode="&#x2009;" horiz-adv-x="351" />
<glyph unicode="&#x200a;" horiz-adv-x="97" />
<glyph unicode="&#x2010;" horiz-adv-x="645" d="M66 391v189h514v-189h-514z" />
<glyph unicode="&#x2011;" horiz-adv-x="645" d="M66 391v189h514v-189h-514z" />
<glyph unicode="&#x2012;" horiz-adv-x="645" d="M66 391v189h514v-189h-514z" />
<glyph unicode="&#x2013;" horiz-adv-x="1005" d="M70 399v172h866v-172h-866z" />
<glyph unicode="&#x2014;" horiz-adv-x="1638" d="M59 399v172h1520v-172h-1520z" />
<glyph unicode="&#x2018;" horiz-adv-x="548" d="M49 899q0 126 76 259.5t178 205.5l154 -76q-199 -199 -199 -452z" />
<glyph unicode="&#x2019;" horiz-adv-x="548" d="M92 907q199 199 199 453l209 -64q0 -126 -76 -259.5t-178 -205.5z" />
<glyph unicode="&#x201a;" horiz-adv-x="548" d="M27 -160q200 200 200 453l207 -64q0 -126 -76 -259.5t-178 -205.5z" />
<glyph unicode="&#x201c;" horiz-adv-x="958" d="M49 899q0 126 76 259.5t178 205.5l154 -76q-199 -199 -199 -452zM459 899q0 126 76 259.5t178 205.5l153 -76q-198 -198 -198 -452z" />
<glyph unicode="&#x201d;" horiz-adv-x="958" d="M92 907q199 199 199 453l209 -64q0 -126 -76 -259.5t-178 -205.5zM502 907q198 198 198 453l209 -64q0 -126 -76 -259.5t-178 -205.5z" />
<glyph unicode="&#x201e;" horiz-adv-x="958" d="M31 -160q198 198 198 453l209 -64q0 -125 -76.5 -258.5t-177.5 -206.5zM444 -160q201 201 201 453l207 -64q0 -126 -76 -259.5t-178 -205.5z" />
<glyph unicode="&#x2022;" d="M287 647q0 114 79 193.5t193 79.5t193 -79.5t79 -193.5q0 -113 -79 -192.5t-193 -79.5t-193 79t-79 193z" />
<glyph unicode="&#x2026;" horiz-adv-x="1677" d="M131 127q0 62 42 103.5t106 41.5q66 0 107.5 -40.5t41.5 -102.5t-41.5 -103.5t-105.5 -41.5q-66 0 -108 40.5t-42 102.5zM690 127q0 62 42 103.5t106 41.5q66 0 107.5 -40.5t41.5 -102.5t-41.5 -103.5t-105.5 -41.5q-66 0 -108 40.5t-42 102.5zM1249 127q0 62 42 103.5 t106 41.5q66 0 107.5 -40.5t41.5 -102.5t-41.5 -103.5t-105.5 -41.5q-66 0 -108 40.5t-42 102.5z" />
<glyph unicode="&#x202f;" horiz-adv-x="351" />
<glyph unicode="&#x2039;" horiz-adv-x="602" d="M90 451v112l301 363l117 -97l-262 -321l262 -322l-117 -98z" />
<glyph unicode="&#x203a;" horiz-adv-x="602" d="M94 184l262 322l-262 321l115 99l303 -363v-112l-301 -363z" />
<glyph unicode="&#x205f;" horiz-adv-x="439" />
<glyph unicode="&#x20ac;" d="M90 444v138h123q-2 40 -2 69l2 72h-123v139h141q36 208 165 333.5t327 125.5q76 0 141 -17.5t104 -42.5t67 -50t39 -43l11 -17l-112 -143q-1 1 -12 13t-20 20t-25.5 22.5t-34.5 24t-41 19.5t-50.5 15.5t-56.5 5.5q-105 0 -173 -73.5t-83 -192.5h377v-137h-395 q-2 -43 -2 -72l2 -69h395v-140h-377q22 -135 82 -200.5t168 -65.5q51 0 98.5 17.5t79.5 44t49 44t25 29.5l113 -145q-5 -8 -14.5 -20.5t-45.5 -45t-77.5 -57t-111.5 -45t-147 -20.5q-391 0 -467 464h-139z" />
<glyph unicode="&#x2122;" horiz-adv-x="1525" d="M74 1180v120h534v-120h-192v-580h-148v580h-194zM666 600l32 700h209l140 -501l137 501h211l35 -698l-150 -2l-18 543l-156 -543h-125l-154 543l-20 -543h-141z" />
<glyph unicode="&#x25fc;" horiz-adv-x="962" d="M0 0v963h963v-963h-963z" />
</font>
</defs>
</svg>
