<?xml version="1.0" standalone="no"?>
<!DOCTYPE svg PUBLIC "-//W3C//DTD SVG 20010904//EN"
 "http://www.w3.org/TR/2001/REC-SVG-20010904/DTD/svg10.dtd">
<svg version="1.0" xmlns="http://www.w3.org/2000/svg"
 width="310.000000pt" height="310.000000pt" viewBox="0 0 310.000000 310.000000"
 preserveAspectRatio="xMidYMid meet">
<metadata>
Created by potrace 1.11, written by Peter Selinger 2001-2013
</metadata>
<g transform="translate(0.000000,310.000000) scale(0.100000,-0.100000)"
fill="#000000" stroke="none">
<path d="M1790 2979 c125 -52 187 -104 235 -198 49 -97 51 -132 52 -766 l1
-590 -27 -81 c-43 -128 -120 -218 -225 -265 -74 -32 -177 -44 -393 -44 l-203
0 0 -467 0 -468 235 0 235 0 0 53 c1 28 1 238 1 465 l0 412 22 1 c12 1 115 2
229 4 120 1 228 8 260 15 159 38 270 151 322 329 14 48 16 133 15 640 -1 623
-4 663 -50 759 -33 67 -114 146 -184 179 l-60 28 -245 2 c-177 2 -238 -1 -220
-8z"/>
<path d="M978 2802 l-417 -2 0 -1350 0 -1350 198 0 199 0 0 561 c0 308 2 562
5 565 2 3 108 6 233 8 210 2 233 4 274 24 113 53 143 120 142 317 -2 953 -3
1032 -18 1080 -23 77 -78 126 -160 142 -22 4 -227 7 -456 5z"/>
</g>
</svg>
