<?xml version="1.0" encoding="utf-8"?>
<!-- Generator: Adobe Illustrator 18.0.0, SVG Export Plug-In . SVG Version: 6.00 Build 0)  -->
<!DOCTYPE svg PUBLIC "-//W3C//DTD SVG 1.1//EN" "http://www.w3.org/Graphics/SVG/1.1/DTD/svg11.dtd">
<svg version="1.1" id="Camada_1" xmlns="http://www.w3.org/2000/svg" xmlns:xlink="http://www.w3.org/1999/xlink" x="0px" y="0px"
	 viewBox="0 0 94 20" enable-background="new 0 0 94 20" xml:space="preserve">
<path fill-rule="evenodd" clip-rule="evenodd" fill="#FA120E" d="M10,0h74c5.5,0,10,4.5,10,10c0,5.5-4.5,10-10,10H10
	C4.5,20,0,15.5,0,10C0,4.5,4.5,0,10,0z"/>
<circle fill-rule="evenodd" clip-rule="evenodd" fill="#FFFFFF" cx="84.3" cy="10.3" r="6"/>
<g>
	<path fill="#FFFFFF" d="M17.7,14.6h-2l-2.4-8.9H15l1.7,7.3l1.8-7.3h1.6L17.7,14.6z"/>
	<path fill="#FFFFFF" d="M21.2,14.6V5.7h4.6V7h-3.1v2.2h2.9v1.3h-2.9v2.7H26v1.3H21.2z"/>
	<path fill="#FFFFFF" d="M31.3,14.6L29.7,11H29v3.6h-1.5V5.7h2.3c0.9,0,1.6,0.1,2.1,0.5c0.6,0.4,0.9,1.1,0.9,2.1
		c0,1.3-0.7,2.1-1.6,2.5l1.9,3.8H31.3z M29.7,6.9H29v2.9h0.7c1,0,1.6-0.5,1.6-1.5C31.2,7.4,30.7,6.9,29.7,6.9z"/>
	<path fill="#FFFFFF" d="M38.9,7v7.6h-1.6V7h-2V5.7h5.5V7H38.9z"/>
	<path fill="#FFFFFF" d="M44.7,14.7c-2.1,0-3.4-1.7-3.4-4.6c0-2.9,1.3-4.6,3.4-4.6c2.1,0,3.4,1.7,3.4,4.6
		C48.1,13,46.8,14.7,44.7,14.7z M44.7,6.9c-1.2,0-1.8,1.3-1.8,3.2c0,2,0.6,3.2,1.8,3.2c1.2,0,1.8-1.3,1.8-3.2
		C46.4,8.1,45.9,6.9,44.7,6.9z"/>
	<path fill="#FFFFFF" d="M54.6,13.5c-0.7,0.8-1.7,1-3,1h-2V5.7h2.1c1.4,0,2.3,0.2,3,0.9c0.7,0.7,1.1,1.8,1.1,3.4
		C55.9,11.6,55.3,12.8,54.6,13.5z M53.6,7.6C53.2,7.2,52.6,7,51.8,7h-0.6v6.2h0.6c0.8,0,1.3-0.1,1.8-0.6c0.4-0.5,0.7-1.4,0.7-2.5
		C54.2,9,54,8.1,53.6,7.6z"/>
	<path fill="#FFFFFF" d="M61.6,14.6L61,12.5h-2.6l-0.5,2.1h-1.6l2.5-8.9h2l2.4,8.9H61.6z M59.7,7.1l-1,4.2h2.1L59.7,7.1z"/>
	<path fill="#FFFFFF" d="M66.1,14.7c-1.4,0-2.3-0.8-2.5-1.2l0.8-1.1c0.3,0.5,0.9,0.9,1.7,0.9c0.8,0,1.3-0.5,1.3-1.1
		c0-0.7-0.5-1.1-1.3-1.5C64.6,10,63.9,9.4,63.9,8c0-1.6,1.2-2.5,2.7-2.5c1.5,0,2.2,0.7,2.4,1.1l-0.8,1.1c-0.3-0.4-0.8-0.8-1.6-0.8
		c-0.7,0-1.1,0.4-1.1,1c0,0.6,0.4,0.9,1.2,1.4C68,10,69,10.6,69,12.1C69,13.7,67.8,14.7,66.1,14.7z"/>
</g>
</svg>
