<?xml version="1.0" encoding="utf-8"?>
<!-- Generator: Adobe Illustrator 18.0.0, SVG Export Plug-In . SVG Version: 6.00 Build 0)  -->
<!DOCTYPE svg PUBLIC "-//W3C//DTD SVG 1.1//EN" "http://www.w3.org/Graphics/SVG/1.1/DTD/svg11.dtd">
<svg version="1.1" id="Camada_1" xmlns="http://www.w3.org/2000/svg" xmlns:xlink="http://www.w3.org/1999/xlink" x="0px" y="0px"
	 viewBox="0 0 115.7 27.8" enable-background="new 0 0 115.7 27.8" xml:space="preserve">
<path fill-rule="evenodd" clip-rule="evenodd" fill="#FA120E" d="M31.7,4.1h74c5.5,0,10,4.5,10,10c0,5.5-4.5,10-10,10h-74
	c-5.5,0-10-4.5-10-10C21.7,8.5,26.2,4.1,31.7,4.1z"/>
<path fill-rule="evenodd" clip-rule="evenodd" fill="#FA120E" d="M0,9l9.3,8.9v-5.4c2.8,0,10,0.1,10,7.4c0,3.9-2.7,7.1-6.4,7.8
	C18.7,27,23.3,22,23.3,16c0-11.3-12-11.4-14-11.4V0L0,9z"/>
<circle fill-rule="evenodd" clip-rule="evenodd" fill="#FFFFFF" cx="106" cy="14.3" r="6"/>
<g>
	<path fill="#FFFFFF" d="M50.4,18.6h-2L46,9.7h1.7l1.7,7.3l1.8-7.3h1.6L50.4,18.6z"/>
	<path fill="#FFFFFF" d="M56.7,18.8c-2.1,0-3.4-1.7-3.4-4.6c0-2.9,1.3-4.6,3.4-4.6c2.1,0,3.4,1.7,3.4,4.6
		C60.2,17.1,58.9,18.8,56.7,18.8z M56.7,10.9c-1.2,0-1.8,1.3-1.8,3.2c0,2,0.6,3.2,1.8,3.2c1.2,0,1.8-1.3,1.8-3.2
		C58.5,12.2,57.9,10.9,56.7,10.9z"/>
	<path fill="#FFFFFF" d="M61.7,18.6V9.7h1.5v7.6h2.9v1.3H61.7z"/>
	<path fill="#FFFFFF" d="M69.2,11v7.6h-1.6V11h-2V9.7h5.5V11H69.2z"/>
	<path fill="#FFFFFF" d="M76.1,18.6l-0.5-2.1h-2.6l-0.5,2.1h-1.6l2.5-8.9h2l2.4,8.9H76.1z M74.2,11.2l-1,4.2h2.1L74.2,11.2z"/>
	<path fill="#FFFFFF" d="M82.8,18.6l-1.6-3.6h-0.7v3.6h-1.5V9.7h2.3c0.9,0,1.6,0.1,2.1,0.5c0.6,0.4,0.9,1.1,0.9,2.1
		c0,1.3-0.7,2.1-1.6,2.5l1.9,3.8H82.8z M81.1,11h-0.7v2.9h0.7c1,0,1.6-0.5,1.6-1.5C82.6,11.5,82.1,11,81.1,11z"/>
</g>
</svg>
