<?xml version="1.0" encoding="utf-8"?>
<!-- Generator: Adobe Illustrator 18.0.0, SVG Export Plug-In . SVG Version: 6.00 Build 0)  -->
<!DOCTYPE svg PUBLIC "-//W3C//DTD SVG 1.1//EN" "http://www.w3.org/Graphics/SVG/1.1/DTD/svg11.dtd">
<svg version="1.1" id="Camada_1" xmlns="http://www.w3.org/2000/svg" xmlns:xlink="http://www.w3.org/1999/xlink" x="0px" y="0px"
	 viewBox="0 0 27 27" enable-background="new 0 0 27 27" xml:space="preserve">
<path fill="#FFFFFF" d="M8.4,27H0.6C0.3,27,0,26.7,0,26.4v-7.9c0-0.1,0.1-0.3,0.2-0.4l18-18C18.3,0.1,18.4,0,18.6,0h7.9
	C26.7,0,27,0.3,27,0.6v7.9c0,0.1-0.1,0.3-0.2,0.4l-3.4,3.4c-0.1,0.1-0.2,0.2-0.4,0.2h-5.4l-5.3,5.3v5.4c0,0.1-0.1,0.3-0.2,0.4
	l-3.4,3.4C8.7,26.9,8.6,27,8.4,27z M1.1,25.9h7.1l3-3v-5.4c0-0.1,0.1-0.3,0.2-0.4l5.6-5.6c0.1-0.1,0.2-0.2,0.4-0.2h5.4l3-3V1.1h-7.1
	L1.1,18.8V25.9z"/>
<path fill="#FFFFFF" d="M18.7,17.9l5.6,0.2c0.3,0,0.6,0.3,0.5,0.6c0,0.3-0.3,0.6-0.6,0.5L19.2,19l-0.2,5.1c0,0.3-0.3,0.6-0.6,0.5
	c-0.3,0-0.6-0.3-0.5-0.6l0.2-5.6C18.1,18.1,18.4,17.9,18.7,17.9z"/>
<path fill="#FFFFFF" d="M18.3,18c0.2-0.2,0.6-0.2,0.8,0l7.6,8.1c0.2,0.2,0.2,0.6,0,0.8c-0.2,0.2-0.6,0.2-0.8,0l-7.6-8.1
	c-0.1-0.1-0.2-0.3-0.2-0.4C18.1,18.3,18.2,18.1,18.3,18z"/>
</svg>
