<?xml version="1.0" encoding="utf-8"?>
<!-- Generator: Adobe Illustrator 18.0.0, SVG Export Plug-In . SVG Version: 6.00 Build 0)  -->
<!DOCTYPE svg PUBLIC "-//W3C//DTD SVG 1.1//EN" "http://www.w3.org/Graphics/SVG/1.1/DTD/svg11.dtd">
<svg version="1.1" id="Camada_1" xmlns="http://www.w3.org/2000/svg" xmlns:xlink="http://www.w3.org/1999/xlink" x="0px" y="0px"
	 viewBox="0 0 29.4 23.6" enable-background="new 0 0 29.4 23.6" xml:space="preserve">
<path fill-rule="evenodd" clip-rule="evenodd" fill="#FFFFFF" d="M25.7,23.6h-22C1.6,23.6,0,22,0,20V3.6C0,1.6,1.6,0,3.7,0h22
	c2,0,3.7,1.6,3.7,3.6V20C29.4,22,27.7,23.6,25.7,23.6z M4.6,1.8l10.1,8.7l10.1-8.7H4.6z M27.5,3.6c0-0.5-0.2-1-0.6-1.3L14.7,12.7
	L2.4,2.3C2.1,2.6,1.8,3.1,1.8,3.6V20c0,1,0.8,1.8,1.8,1.8h22c1,0,1.8-0.8,1.8-1.8V3.6z"/>
</svg>
