<?xml version="1.0" encoding="utf-8"?>
<!-- Generator: Adobe Illustrator 18.0.0, SVG Export Plug-In . SVG Version: 6.00 Build 0)  -->
<!DOCTYPE svg PUBLIC "-//W3C//DTD SVG 1.1//EN" "http://www.w3.org/Graphics/SVG/1.1/DTD/svg11.dtd">
<svg version="1.1" id="Camada_1" xmlns="http://www.w3.org/2000/svg" xmlns:xlink="http://www.w3.org/1999/xlink" x="0px" y="0px"
	 viewBox="0 0 27.3 27" enable-background="new 0 0 27.3 27" xml:space="preserve">
<path fill="#F91411" d="M10.8,27c-0.1,0-0.1,0-0.2,0c-0.2-0.1-0.4-0.3-0.4-0.5v-5.1H5.7c-0.2,0-0.3-0.1-0.4-0.2l-5.1-5.1
	C0.1,16,0,15.9,0,15.8V5.6c0-0.1,0.1-0.3,0.2-0.4l5.1-5.1C5.4,0.1,5.5,0,5.7,0h15.9c0.2,0,0.3,0.1,0.4,0.2l5.1,5.1
	c0.1,0.1,0.2,0.2,0.2,0.4v10.1c0,0.1-0.1,0.3-0.2,0.4L22,21.2c-0.1,0.1-0.3,0.2-0.4,0.2h-4.9l-5.5,5.5C11.1,26.9,11,27,10.8,27z
	 M5.9,20.3h4.9c0.3,0,0.6,0.3,0.6,0.6v4.3l4.7-4.7c0.1-0.1,0.3-0.2,0.4-0.2h4.9l4.8-4.7V5.9l-4.8-4.7H5.9L1.1,5.9v9.7L5.9,20.3z"/>
<path fill="#F91411" d="M20.5,13.5c-0.1,0-0.3-0.1-0.4-0.2l-1.7-1.7c-0.2-0.2-0.2-0.6,0-0.8l1.7-1.7c0.2-0.2,0.6-0.2,0.8,0l1.7,1.7
	c0.2,0.2,0.2,0.6,0,0.8l-1.7,1.7C20.8,13.4,20.6,13.5,20.5,13.5z M19.6,11.3l0.9,0.9l0.9-0.9l-0.9-0.9L19.6,11.3z"/>
<path fill="#F91411" d="M13.7,13.5c-0.1,0-0.3-0.1-0.4-0.2l-1.7-1.7c-0.2-0.2-0.2-0.6,0-0.8l1.7-1.7c0.2-0.2,0.6-0.2,0.8,0l1.7,1.7
	c0.2,0.2,0.2,0.6,0,0.8l-1.7,1.7C14,13.4,13.8,13.5,13.7,13.5z M12.8,11.3l0.9,0.9l0.9-0.9l-0.9-0.9L12.8,11.3z"/>
<path fill="#F91411" d="M6.8,13.5c-0.1,0-0.3-0.1-0.4-0.2l-1.7-1.7c-0.2-0.2-0.2-0.6,0-0.8l1.7-1.7c0.2-0.2,0.6-0.2,0.8,0l1.7,1.7
	c0.2,0.2,0.2,0.6,0,0.8l-1.7,1.7C7.1,13.4,7,13.5,6.8,13.5z M5.9,11.3l0.9,0.9l0.9-0.9l-0.9-0.9L5.9,11.3z"/>
</svg>
