<?xml version="1.0" encoding="utf-8"?>
<!-- Generator: Adobe Illustrator 18.0.0, SVG Export Plug-In . SVG Version: 6.00 Build 0)  -->
<!DOCTYPE svg PUBLIC "-//W3C//DTD SVG 1.1//EN" "http://www.w3.org/Graphics/SVG/1.1/DTD/svg11.dtd">
<svg version="1.1" id="Camada_1" xmlns="http://www.w3.org/2000/svg" xmlns:xlink="http://www.w3.org/1999/xlink" x="0px" y="0px"
	 viewBox="0 0 27.9 28.1" enable-background="new 0 0 27.9 28.1" xml:space="preserve">
<path fill-rule="evenodd" clip-rule="evenodd" fill="#FFFFFF" d="M3.4,0.5L0.8,3.1c-1.4,1.4-0.7,3.2,0,5.2c0,0,3.5,6.1,8.1,10.7
	c4.9,4.9,10.6,8.1,10.6,8.1c1.9,1,3.7,1.4,5.2,0l2.6-2.6c0.7-0.7,0.9-2,0-2.6l-5.2-3.9c-0.9-0.6-1.9-0.7-2.6,0l0,0l0,0L18,19.6
	c-1.8-1.3-3.8-3-5.6-4.8c-1.6-1.6-3-3.3-4.2-4.9l1.6-1.6c0.7-0.7,0.6-1.7,0-2.6L6,0.5C5.3-0.2,4.1-0.2,3.4,0.5 M5.9,9.7L8,7.6
	C8.4,7.2,8.4,6.5,8,6L5.5,2.7c-0.5-0.6-1.2-0.5-1.6,0L2.2,4.3C1.6,4.9,1.8,6.4,2.1,7C3.6,10,7,14.5,9.9,17.4c3.3,3.6,11,8.5,11,8.5
	c0.6,0.3,2.2,0.3,2.7-0.1l1.6-1.7c0.3-0.6,0.5-1.2,0-1.7L21.9,20c-0.6-0.4-1.2-0.5-1.6,0l-2,2C17.8,21.7,10.1,16.6,5.9,9.7z"/>
</svg>
