<?xml version="1.0" encoding="utf-8"?>
<!-- Generator: Adobe Illustrator 18.0.0, SVG Export Plug-In . SVG Version: 6.00 Build 0)  -->
<!DOCTYPE svg PUBLIC "-//W3C//DTD SVG 1.1//EN" "http://www.w3.org/Graphics/SVG/1.1/DTD/svg11.dtd">
<svg version="1.1" id="Camada_1" xmlns="http://www.w3.org/2000/svg" xmlns:xlink="http://www.w3.org/1999/xlink" x="0px" y="0px"
	 viewBox="0 0 29.6 27" enable-background="new 0 0 29.6 27" xml:space="preserve">
<path fill="#F91411" d="M6.8,20.9H0.6c-0.2,0-0.5-0.1-0.6-0.4C0,20.2,0,20,0.2,19.8l4.9-4.9c0.1-0.1,0.3-0.2,0.4-0.2h6.2
	c0.2,0,0.5,0.1,0.6,0.4c0.1,0.2,0,0.5-0.1,0.7l-4.9,4.9C7.1,20.8,6.9,20.9,6.8,20.9z M2.1,19.6h4.4l3.7-3.7H5.8L2.1,19.6z"/>
<path fill="#F91411" d="M16.6,20.9c-0.2,0-0.3-0.1-0.4-0.2l-4.9-4.9c-0.2-0.2-0.2-0.6,0-0.9c0.2-0.2,0.6-0.2,0.9,0l4.9,4.9
	c0.2,0.2,0.2,0.6,0,0.9C17,20.8,16.8,20.9,16.6,20.9z"/>
<path fill="#F91411" d="M9.2,27H3.1c-0.3,0-0.6-0.3-0.6-0.6v-6.1c0-0.3,0.3-0.6,0.6-0.6s0.6,0.3,0.6,0.6v5.5h4.9v-8
	c0-0.3,0.3-0.6,0.6-0.6c0.3,0,0.6,0.3,0.6,0.6v8.6C9.9,26.7,9.6,27,9.2,27z"/>
<path fill="#F91411" d="M14.2,27H9.2c-0.3,0-0.6-0.3-0.6-0.6c0-0.3,0.3-0.6,0.6-0.6h4.3v-8c0-0.3,0.3-0.6,0.6-0.6
	c0.3,0,0.6,0.3,0.6,0.6v8.6C14.8,26.7,14.5,27,14.2,27z"/>
<path fill="#F91411" d="M16.6,7.4H7.4C7.1,7.4,6.9,7.2,6.8,7C6.7,6.8,6.8,6.5,7,6.3l6.2-6.1C13.2,0.1,13.4,0,13.6,0h9.2
	c0.2,0,0.5,0.1,0.6,0.4c0.1,0.2,0,0.5-0.1,0.7l-6.2,6.1C17,7.3,16.8,7.4,16.6,7.4z M8.9,6.1h7.5l4.9-4.9h-7.5L8.9,6.1z"/>
<path fill="#F91411" d="M29,7.4c-0.2,0-0.3-0.1-0.4-0.2L22.4,1c-0.2-0.2-0.2-0.6,0-0.9c0.2-0.2,0.6-0.2,0.9,0l6.2,6.1
	c0.2,0.2,0.2,0.6,0,0.9C29.3,7.3,29.1,7.4,29,7.4z"/>
<path fill="#F91411" d="M19.1,24.5c-0.3,0-0.6-0.3-0.6-0.6V4.3c0-0.3,0.3-0.6,0.6-0.6c0.3,0,0.6,0.3,0.6,0.6v19.6
	C19.7,24.3,19.5,24.5,19.1,24.5z"/>
<path fill="#F91411" d="M10.5,13.5c-0.3,0-0.6-0.3-0.6-0.6V6.7c0-0.3,0.3-0.6,0.6-0.6c0.3,0,0.6,0.3,0.6,0.6v6.1
	C11.1,13.2,10.8,13.5,10.5,13.5z"/>
<path fill="#F91411" d="M26.5,24.5h-8.6c-0.3,0-0.6-0.3-0.6-0.6c0-0.3,0.3-0.6,0.6-0.6h8v-19c0-0.3,0.3-0.6,0.6-0.6
	c0.3,0,0.6,0.3,0.6,0.6v19.6C27.1,24.3,26.8,24.5,26.5,24.5z"/>
<path fill="#F91411" d="M21.6,9.2c-0.3,0-0.6-0.3-0.6-0.6V7.4c0-0.3,0.3-0.6,0.6-0.6c0.3,0,0.6,0.3,0.6,0.6v1.2
	C22.2,8.9,21.9,9.2,21.6,9.2z"/>
<path fill="#F91411" d="M24.7,9.2c-0.3,0-0.6-0.3-0.6-0.6V7.4c0-0.3,0.3-0.6,0.6-0.6c0.3,0,0.6,0.3,0.6,0.6v1.2
	C25.3,8.9,25,9.2,24.7,9.2z"/>
<path fill="#F91411" d="M21.6,14.1c-0.3,0-0.6-0.3-0.6-0.6v-1.2c0-0.3,0.3-0.6,0.6-0.6c0.3,0,0.6,0.3,0.6,0.6v1.2
	C22.2,13.8,21.9,14.1,21.6,14.1z"/>
<path fill="#F91411" d="M24.7,14.1c-0.3,0-0.6-0.3-0.6-0.6v-1.2c0-0.3,0.3-0.6,0.6-0.6c0.3,0,0.6,0.3,0.6,0.6v1.2
	C25.3,13.8,25,14.1,24.7,14.1z"/>
<path fill="#F91411" d="M21.6,19c-0.3,0-0.6-0.3-0.6-0.6v-1.2c0-0.3,0.3-0.6,0.6-0.6c0.3,0,0.6,0.3,0.6,0.6v1.2
	C22.2,18.7,21.9,19,21.6,19z"/>
<path fill="#F91411" d="M24.7,19c-0.3,0-0.6-0.3-0.6-0.6v-1.2c0-0.3,0.3-0.6,0.6-0.6c0.3,0,0.6,0.3,0.6,0.6v1.2
	C25.3,18.7,25,19,24.7,19z"/>
<path fill="#F91411" d="M11.7,27c-0.3,0-0.6-0.3-0.6-0.6v-2.5c0-0.3,0.3-0.6,0.6-0.6c0.3,0,0.6,0.3,0.6,0.6v2.5
	C12.3,26.7,12.1,27,11.7,27z"/>
</svg>
