<?xml version="1.0" encoding="utf-8"?>
<!-- Generator: Adobe Illustrator 18.0.0, SVG Export Plug-In . SVG Version: 6.00 Build 0)  -->
<!DOCTYPE svg PUBLIC "-//W3C//DTD SVG 1.1//EN" "http://www.w3.org/Graphics/SVG/1.1/DTD/svg11.dtd">
<svg version="1.1" id="Camada_1" xmlns="http://www.w3.org/2000/svg" xmlns:xlink="http://www.w3.org/1999/xlink" x="0px" y="0px"
	 viewBox="0 0 45 45" enable-background="new 0 0 45 45" xml:space="preserve">
<path fill-rule="evenodd" clip-rule="evenodd" fill="#F94356" d="M22.5,0C34.9,0,45,10.1,45,22.5C45,34.9,34.9,45,22.5,45
	C10.1,45,0,34.9,0,22.5C0,10.1,10.1,0,22.5,0z"/>
<path fill-rule="evenodd" clip-rule="evenodd" fill="#FFFFFF" d="M34.3,18L25,26.9v-5.4c-2.8,0-10,0.1-10,7.4c0,3.9,2.7,7.1,6.4,7.8
	C15.5,36,11,31,11,25c0-11.3,12-11.4,14-11.4V9L34.3,18z"/>
</svg>
