<?xml version="1.0" encoding="utf-8"?>
<!-- Generator: Adobe Illustrator 18.0.0, SVG Export Plug-In . SVG Version: 6.00 Build 0)  -->
<!DOCTYPE svg PUBLIC "-//W3C//DTD SVG 1.1//EN" "http://www.w3.org/Graphics/SVG/1.1/DTD/svg11.dtd">
<svg version="1.1" id="Camada_1" xmlns="http://www.w3.org/2000/svg" xmlns:xlink="http://www.w3.org/1999/xlink" x="0px" y="0px"
	 viewBox="0 0 25 34" enable-background="new 0 0 25 34" xml:space="preserve">
<path fill-rule="evenodd" clip-rule="evenodd" fill="#10A3C7" d="M12.5,34C10.4,34,0,18.1,0,12.7C0,5.7,5.6,0,12.5,0S25,5.7,25,12.7
	C25,18,14.5,34,12.5,34z M12.5,2.1C6.7,2.1,2.1,6.9,2.1,12.7c0,4.4,8.7,18.1,10.4,18.1c1.7,0,10.4-13.7,10.4-18.1
	C22.9,6.9,18.2,2.1,12.5,2.1z M12.5,18.1c-2.9,0-5.2-2.4-5.2-5.3s2.3-5.3,5.2-5.3s5.2,2.4,5.2,5.3S15.3,18.1,12.5,18.1z M12.5,9.6
	c-1.7,0-3.1,1.4-3.1,3.2c0,1.8,1.4,3.2,3.1,3.2c1.7,0,3.1-1.4,3.1-3.2C15.6,11,14.2,9.6,12.5,9.6z"/>
</svg>
